<mxfile host="app.diagrams.net" modified="2022-05-11T00:12:37.535Z" agent="5.0 (Windows NT 10.0; Win64; x64) AppleWebKit/537.36 (KHTML, like Gecko) Chrome/101.0.4951.54 Safari/537.36" etag="ehhn6FsqkuJhSYgi17Ks" version="18.0.2" type="github">
  <diagram id="R2lEEEUBdFMjLlhIrx00" name="Page-1">
    <mxGraphModel dx="769" dy="425" grid="1" gridSize="3.937" guides="1" tooltips="1" connect="1" arrows="1" fold="1" page="1" pageScale="1" pageWidth="2339" pageHeight="3300" math="0" shadow="0" extFonts="Permanent Marker^https://fonts.googleapis.com/css?family=Permanent+Marker">
      <root>
        <mxCell id="0" />
        <mxCell id="1" parent="0" />
        <mxCell id="hRsAympE7n8ipThZUoXn-5" value="" style="group" parent="1" vertex="1" connectable="0">
          <mxGeometry x="23.62" y="20" width="2290.0060000000003" height="3250.028" as="geometry" />
        </mxCell>
        <mxCell id="bOlvTl43doBLw3R69mOg-1" value="" style="rounded=0;whiteSpace=wrap;html=1;fillColor=none;" parent="hRsAympE7n8ipThZUoXn-5" vertex="1">
          <mxGeometry width="2290" height="3250" as="geometry" />
        </mxCell>
        <mxCell id="bOlvTl43doBLw3R69mOg-2" value="" style="rounded=0;whiteSpace=wrap;html=1;fillColor=none;" parent="hRsAympE7n8ipThZUoXn-5" vertex="1">
          <mxGeometry x="1561.1100000000001" y="3072.86" width="728.35" height="177.165" as="geometry" />
        </mxCell>
        <mxCell id="UN5E2BRM_m0n_mUQd9ct-3" value="" style="rounded=0;whiteSpace=wrap;html=1;fillColor=none;" parent="hRsAympE7n8ipThZUoXn-5" vertex="1">
          <mxGeometry x="1562.0099999999998" y="3111.16" width="27.558999999999997" height="19.685" as="geometry" />
        </mxCell>
        <mxCell id="UN5E2BRM_m0n_mUQd9ct-4" value="" style="rounded=0;whiteSpace=wrap;html=1;fillColor=none;" parent="hRsAympE7n8ipThZUoXn-5" vertex="1">
          <mxGeometry x="1562.0000000000002" y="3131.6699999999996" width="27.558999999999997" height="19.685" as="geometry" />
        </mxCell>
        <mxCell id="UN5E2BRM_m0n_mUQd9ct-5" value="" style="rounded=0;whiteSpace=wrap;html=1;fillColor=none;" parent="hRsAympE7n8ipThZUoXn-5" vertex="1">
          <mxGeometry x="1562.01" y="3091.47" width="27.558999999999997" height="19.685" as="geometry" />
        </mxCell>
        <mxCell id="UN5E2BRM_m0n_mUQd9ct-9" value="" style="rounded=0;whiteSpace=wrap;html=1;fillColor=none;" parent="hRsAympE7n8ipThZUoXn-5" vertex="1">
          <mxGeometry x="1589.5699999999997" y="3111.16" width="39.37" height="19.685" as="geometry" />
        </mxCell>
        <mxCell id="UN5E2BRM_m0n_mUQd9ct-10" value="" style="rounded=0;whiteSpace=wrap;html=1;fillColor=none;" parent="hRsAympE7n8ipThZUoXn-5" vertex="1">
          <mxGeometry x="1589.5600000000002" y="3131.6699999999996" width="39.37" height="19.685" as="geometry" />
        </mxCell>
        <mxCell id="UN5E2BRM_m0n_mUQd9ct-11" value="" style="rounded=0;whiteSpace=wrap;html=1;fillColor=none;" parent="hRsAympE7n8ipThZUoXn-5" vertex="1">
          <mxGeometry x="1589.57" y="3091.47" width="39.37" height="19.685" as="geometry" />
        </mxCell>
        <mxCell id="UN5E2BRM_m0n_mUQd9ct-14" value="" style="rounded=0;whiteSpace=wrap;html=1;fillColor=none;" parent="hRsAympE7n8ipThZUoXn-5" vertex="1">
          <mxGeometry x="1628.9399999999998" y="3111.16" width="90.551" height="19.685" as="geometry" />
        </mxCell>
        <mxCell id="UN5E2BRM_m0n_mUQd9ct-15" value="" style="rounded=0;whiteSpace=wrap;html=1;fillColor=none;" parent="hRsAympE7n8ipThZUoXn-5" vertex="1">
          <mxGeometry x="1629.2800000000002" y="3110.9399999999996" width="90.551" height="19.685" as="geometry" />
        </mxCell>
        <mxCell id="UN5E2BRM_m0n_mUQd9ct-16" value="" style="rounded=0;whiteSpace=wrap;html=1;fillColor=none;" parent="hRsAympE7n8ipThZUoXn-5" vertex="1">
          <mxGeometry x="1628.94" y="3091.47" width="90.551" height="19.685" as="geometry" />
        </mxCell>
        <mxCell id="UN5E2BRM_m0n_mUQd9ct-19" value="" style="rounded=0;whiteSpace=wrap;html=1;fillColor=none;" parent="hRsAympE7n8ipThZUoXn-5" vertex="1">
          <mxGeometry x="1719.4899999999998" y="3111.16" width="59.055" height="19.685" as="geometry" />
        </mxCell>
        <mxCell id="UN5E2BRM_m0n_mUQd9ct-20" value="" style="rounded=0;whiteSpace=wrap;html=1;fillColor=none;" parent="hRsAympE7n8ipThZUoXn-5" vertex="1">
          <mxGeometry x="1719.14" y="3131.67" width="59.055" height="19.685" as="geometry" />
        </mxCell>
        <mxCell id="UN5E2BRM_m0n_mUQd9ct-21" value="" style="rounded=0;whiteSpace=wrap;html=1;fillColor=none;" parent="hRsAympE7n8ipThZUoXn-5" vertex="1">
          <mxGeometry x="1719.49" y="3091.47" width="59.055" height="19.685" as="geometry" />
        </mxCell>
        <mxCell id="UN5E2BRM_m0n_mUQd9ct-24" value="" style="rounded=0;whiteSpace=wrap;html=1;fillColor=none;" parent="hRsAympE7n8ipThZUoXn-5" vertex="1">
          <mxGeometry x="1778.2099999999998" y="3112" width="39.37" height="19.685" as="geometry" />
        </mxCell>
        <mxCell id="UN5E2BRM_m0n_mUQd9ct-25" value="" style="rounded=0;whiteSpace=wrap;html=1;fillColor=none;" parent="hRsAympE7n8ipThZUoXn-5" vertex="1">
          <mxGeometry x="1778.2" y="3131.67" width="39.37" height="19.685" as="geometry" />
        </mxCell>
        <mxCell id="UN5E2BRM_m0n_mUQd9ct-26" value="" style="rounded=0;whiteSpace=wrap;html=1;fillColor=none;" parent="hRsAympE7n8ipThZUoXn-5" vertex="1">
          <mxGeometry x="1778.19" y="3091.47" width="39.37" height="19.685" as="geometry" />
        </mxCell>
        <mxCell id="UN5E2BRM_m0n_mUQd9ct-27" value="" style="rounded=0;whiteSpace=wrap;html=1;fillColor=none;" parent="hRsAympE7n8ipThZUoXn-5" vertex="1">
          <mxGeometry x="1817.56" y="3072.86" width="472.43" height="59.055" as="geometry" />
        </mxCell>
        <mxCell id="UN5E2BRM_m0n_mUQd9ct-28" value="Изм." style="text;html=1;strokeColor=none;fillColor=none;align=center;verticalAlign=middle;whiteSpace=wrap;rounded=0;fontFamily=Times New Roman;fontSize=10;" parent="hRsAympE7n8ipThZUoXn-5" vertex="1">
          <mxGeometry x="1561.11" y="3131.66" width="27.558999999999997" height="19.685" as="geometry" />
        </mxCell>
        <mxCell id="UN5E2BRM_m0n_mUQd9ct-29" value="Лист" style="text;html=1;strokeColor=none;fillColor=none;align=center;verticalAlign=middle;whiteSpace=wrap;rounded=0;fontFamily=Times New Roman;fontSize=10;" parent="hRsAympE7n8ipThZUoXn-5" vertex="1">
          <mxGeometry x="1589.9099999999999" y="3130.85" width="39.37" height="19.685" as="geometry" />
        </mxCell>
        <mxCell id="UN5E2BRM_m0n_mUQd9ct-30" value="№ докум." style="text;html=1;strokeColor=none;fillColor=none;align=center;verticalAlign=middle;whiteSpace=wrap;rounded=0;fontFamily=Times New Roman;fontSize=10;" parent="hRsAympE7n8ipThZUoXn-5" vertex="1">
          <mxGeometry x="1629.2799999999997" y="3131.66" width="90.551" height="19.68" as="geometry" />
        </mxCell>
        <mxCell id="UN5E2BRM_m0n_mUQd9ct-31" value="Подп" style="text;html=1;strokeColor=none;fillColor=none;align=center;verticalAlign=middle;whiteSpace=wrap;rounded=0;fontFamily=Times New Roman;fontSize=10;" parent="hRsAympE7n8ipThZUoXn-5" vertex="1">
          <mxGeometry x="1718.5900000000001" y="3131.93" width="59.055" height="19.68" as="geometry" />
        </mxCell>
        <mxCell id="UN5E2BRM_m0n_mUQd9ct-32" value="Дата" style="text;html=1;strokeColor=none;fillColor=none;align=center;verticalAlign=middle;whiteSpace=wrap;rounded=0;fontFamily=Times New Roman;fontSize=10;" parent="hRsAympE7n8ipThZUoXn-5" vertex="1">
          <mxGeometry x="1778.1899999999998" y="3131.93" width="39.37" height="19.685" as="geometry" />
        </mxCell>
        <mxCell id="UN5E2BRM_m0n_mUQd9ct-34" value="" style="rounded=0;whiteSpace=wrap;html=1;fillColor=none;" parent="hRsAympE7n8ipThZUoXn-5" vertex="1">
          <mxGeometry x="1562" y="3151.6" width="66.929" height="19.68" as="geometry" />
        </mxCell>
        <mxCell id="UN5E2BRM_m0n_mUQd9ct-35" value="" style="rounded=0;whiteSpace=wrap;html=1;fillColor=none;" parent="hRsAympE7n8ipThZUoXn-5" vertex="1">
          <mxGeometry x="1562" y="3171.28" width="66.929" height="19.68" as="geometry" />
        </mxCell>
        <mxCell id="UN5E2BRM_m0n_mUQd9ct-36" value="" style="rounded=0;whiteSpace=wrap;html=1;fillColor=none;" parent="hRsAympE7n8ipThZUoXn-5" vertex="1">
          <mxGeometry x="1562" y="3190.96" width="66.929" height="19.68" as="geometry" />
        </mxCell>
        <mxCell id="UN5E2BRM_m0n_mUQd9ct-37" value="" style="rounded=0;whiteSpace=wrap;html=1;fillColor=none;" parent="hRsAympE7n8ipThZUoXn-5" vertex="1">
          <mxGeometry x="1562" y="3210.64" width="66.929" height="19.68" as="geometry" />
        </mxCell>
        <mxCell id="UN5E2BRM_m0n_mUQd9ct-38" value="" style="rounded=0;whiteSpace=wrap;html=1;fillColor=none;" parent="hRsAympE7n8ipThZUoXn-5" vertex="1">
          <mxGeometry x="1562" y="3230.32" width="66.929" height="19.68" as="geometry" />
        </mxCell>
        <mxCell id="UN5E2BRM_m0n_mUQd9ct-39" value="" style="rounded=0;whiteSpace=wrap;html=1;fillColor=none;" parent="hRsAympE7n8ipThZUoXn-5" vertex="1">
          <mxGeometry x="1628.6" y="3131.6699999999996" width="90.551" height="19.68" as="geometry" />
        </mxCell>
        <mxCell id="UN5E2BRM_m0n_mUQd9ct-42" value="" style="rounded=0;whiteSpace=wrap;html=1;fillColor=none;" parent="hRsAympE7n8ipThZUoXn-5" vertex="1">
          <mxGeometry x="1628.59" y="3190.96" width="90.551" height="19.68" as="geometry" />
        </mxCell>
        <mxCell id="UN5E2BRM_m0n_mUQd9ct-43" value="" style="rounded=0;whiteSpace=wrap;html=1;fillColor=none;" parent="hRsAympE7n8ipThZUoXn-5" vertex="1">
          <mxGeometry x="1628.59" y="3210.64" width="90.551" height="19.68" as="geometry" />
        </mxCell>
        <mxCell id="UN5E2BRM_m0n_mUQd9ct-44" value="" style="rounded=0;whiteSpace=wrap;html=1;fillColor=none;" parent="hRsAympE7n8ipThZUoXn-5" vertex="1">
          <mxGeometry x="1628.59" y="3230.32" width="90.551" height="19.68" as="geometry" />
        </mxCell>
        <mxCell id="UN5E2BRM_m0n_mUQd9ct-45" value="" style="rounded=0;whiteSpace=wrap;html=1;fillColor=none;" parent="hRsAympE7n8ipThZUoXn-5" vertex="1">
          <mxGeometry x="1719.1499999999999" y="3151.61" width="59.055" height="19.68" as="geometry" />
        </mxCell>
        <mxCell id="UN5E2BRM_m0n_mUQd9ct-46" value="" style="rounded=0;whiteSpace=wrap;html=1;fillColor=none;" parent="hRsAympE7n8ipThZUoXn-5" vertex="1">
          <mxGeometry x="1719.1399999999999" y="3171.2799999999997" width="59.055" height="19.68" as="geometry" />
        </mxCell>
        <mxCell id="UN5E2BRM_m0n_mUQd9ct-48" value="" style="rounded=0;whiteSpace=wrap;html=1;fillColor=none;" parent="hRsAympE7n8ipThZUoXn-5" vertex="1">
          <mxGeometry x="1719.1399999999999" y="3190.96" width="59.055" height="19.68" as="geometry" />
        </mxCell>
        <mxCell id="UN5E2BRM_m0n_mUQd9ct-49" value="" style="rounded=0;whiteSpace=wrap;html=1;fillColor=none;" parent="hRsAympE7n8ipThZUoXn-5" vertex="1">
          <mxGeometry x="1719.1399999999999" y="3210.64" width="59.055" height="19.68" as="geometry" />
        </mxCell>
        <mxCell id="UN5E2BRM_m0n_mUQd9ct-50" value="" style="rounded=0;whiteSpace=wrap;html=1;fillColor=none;" parent="hRsAympE7n8ipThZUoXn-5" vertex="1">
          <mxGeometry x="1719.1399999999999" y="3230.32" width="59.055" height="19.68" as="geometry" />
        </mxCell>
        <mxCell id="UN5E2BRM_m0n_mUQd9ct-51" value="" style="rounded=0;whiteSpace=wrap;html=1;fillColor=none;" parent="hRsAympE7n8ipThZUoXn-5" vertex="1">
          <mxGeometry x="1778.1899999999998" y="3151.35" width="39.37" height="19.68" as="geometry" />
        </mxCell>
        <mxCell id="UN5E2BRM_m0n_mUQd9ct-52" value="" style="rounded=0;whiteSpace=wrap;html=1;fillColor=none;" parent="hRsAympE7n8ipThZUoXn-5" vertex="1">
          <mxGeometry x="1778.2" y="3171.2799999999997" width="39.37" height="19.68" as="geometry" />
        </mxCell>
        <mxCell id="UN5E2BRM_m0n_mUQd9ct-54" value="" style="rounded=0;whiteSpace=wrap;html=1;fillColor=none;" parent="hRsAympE7n8ipThZUoXn-5" vertex="1">
          <mxGeometry x="1778.2" y="3190.96" width="39.37" height="19.68" as="geometry" />
        </mxCell>
        <mxCell id="UN5E2BRM_m0n_mUQd9ct-55" value="" style="rounded=0;whiteSpace=wrap;html=1;fillColor=none;" parent="hRsAympE7n8ipThZUoXn-5" vertex="1">
          <mxGeometry x="1778.2" y="3210.64" width="39.37" height="19.68" as="geometry" />
        </mxCell>
        <mxCell id="UN5E2BRM_m0n_mUQd9ct-56" value="" style="rounded=0;whiteSpace=wrap;html=1;fillColor=none;" parent="hRsAympE7n8ipThZUoXn-5" vertex="1">
          <mxGeometry x="1778.2" y="3230.32" width="39.37" height="19.68" as="geometry" />
        </mxCell>
        <mxCell id="UN5E2BRM_m0n_mUQd9ct-58" value="" style="rounded=0;whiteSpace=wrap;html=1;fontFamily=Times New Roman;fontSize=10;fillColor=none;" parent="hRsAympE7n8ipThZUoXn-5" vertex="1">
          <mxGeometry x="2218.59" y="3131.68" width="70.866" height="19.685" as="geometry" />
        </mxCell>
        <mxCell id="UN5E2BRM_m0n_mUQd9ct-59" value="43" style="rounded=0;whiteSpace=wrap;html=1;fontFamily=Times New Roman;fontSize=10;fillColor=none;" parent="hRsAympE7n8ipThZUoXn-5" vertex="1">
          <mxGeometry x="2219.1400000000003" y="3150.53" width="70.866" height="39.37" as="geometry" />
        </mxCell>
        <mxCell id="UN5E2BRM_m0n_mUQd9ct-65" value="" style="rounded=0;whiteSpace=wrap;html=1;fontFamily=Times New Roman;fontSize=10;fillColor=none;" parent="hRsAympE7n8ipThZUoXn-5" vertex="1">
          <mxGeometry x="2152.23" y="3131.68" width="66.929" height="19.685" as="geometry" />
        </mxCell>
        <mxCell id="UN5E2BRM_m0n_mUQd9ct-66" value="33" style="rounded=0;whiteSpace=wrap;html=1;fontFamily=Times New Roman;fontSize=10;fillColor=none;" parent="hRsAympE7n8ipThZUoXn-5" vertex="1">
          <mxGeometry x="2152.21" y="3150.53" width="66.929" height="39.37" as="geometry" />
        </mxCell>
        <mxCell id="UN5E2BRM_m0n_mUQd9ct-68" value="" style="rounded=0;whiteSpace=wrap;html=1;fontFamily=Times New Roman;fontSize=10;fillColor=none;" parent="hRsAympE7n8ipThZUoXn-5" vertex="1">
          <mxGeometry x="2093.1800000000003" y="3131.92" width="59.055" height="19.685" as="geometry" />
        </mxCell>
        <mxCell id="UN5E2BRM_m0n_mUQd9ct-69" value="У" style="rounded=0;whiteSpace=wrap;html=1;fontFamily=Times New Roman;fontSize=10;fillColor=none;" parent="hRsAympE7n8ipThZUoXn-5" vertex="1">
          <mxGeometry x="2093.1600000000003" y="3150.5299999999997" width="59.05" height="39.37" as="geometry" />
        </mxCell>
        <mxCell id="UN5E2BRM_m0n_mUQd9ct-71" value="" style="rounded=0;whiteSpace=wrap;html=1;fontFamily=Times New Roman;fontSize=10;fillColor=none;" parent="hRsAympE7n8ipThZUoXn-5" vertex="1">
          <mxGeometry x="2093.14" y="3190.9700000000003" width="196.85" height="59.055" as="geometry" />
        </mxCell>
        <mxCell id="UN5E2BRM_m0n_mUQd9ct-72" value="Разраб" style="text;html=1;strokeColor=none;fillColor=none;align=center;verticalAlign=middle;whiteSpace=wrap;rounded=0;fontFamily=Times New Roman;fontSize=10;" parent="hRsAympE7n8ipThZUoXn-5" vertex="1">
          <mxGeometry x="1562.35" y="3149.47" width="66.929" height="19.68" as="geometry" />
        </mxCell>
        <mxCell id="UN5E2BRM_m0n_mUQd9ct-73" value="Пров" style="text;html=1;strokeColor=none;fillColor=none;align=center;verticalAlign=middle;whiteSpace=wrap;rounded=0;fontFamily=Times New Roman;fontSize=10;" parent="hRsAympE7n8ipThZUoXn-5" vertex="1">
          <mxGeometry x="1561.1069999999997" y="3170.217" width="66.929" height="19.68" as="geometry" />
        </mxCell>
        <mxCell id="UN5E2BRM_m0n_mUQd9ct-75" value="Н. Контр." style="text;html=1;strokeColor=none;fillColor=none;align=center;verticalAlign=middle;whiteSpace=wrap;rounded=0;fontFamily=Times New Roman;fontSize=10;" parent="hRsAympE7n8ipThZUoXn-5" vertex="1">
          <mxGeometry x="1562.001" y="3210.641" width="66.929" height="19.68" as="geometry" />
        </mxCell>
        <mxCell id="UN5E2BRM_m0n_mUQd9ct-76" value="Утв." style="text;html=1;strokeColor=none;fillColor=none;align=center;verticalAlign=middle;whiteSpace=wrap;rounded=0;fontFamily=Times New Roman;fontSize=10;" parent="hRsAympE7n8ipThZUoXn-5" vertex="1">
          <mxGeometry x="1562.008" y="3230.348" width="66.929" height="19.68" as="geometry" />
        </mxCell>
        <mxCell id="UN5E2BRM_m0n_mUQd9ct-77" value="Лит." style="text;html=1;strokeColor=none;fillColor=none;align=center;verticalAlign=middle;whiteSpace=wrap;rounded=0;fontFamily=Times New Roman;fontSize=10;" parent="hRsAympE7n8ipThZUoXn-5" vertex="1">
          <mxGeometry x="2093.1800000000003" y="3131.93" width="59.055" height="19.68" as="geometry" />
        </mxCell>
        <mxCell id="UN5E2BRM_m0n_mUQd9ct-78" value="Лист" style="text;html=1;strokeColor=none;fillColor=none;align=center;verticalAlign=middle;whiteSpace=wrap;rounded=0;fontFamily=Times New Roman;fontSize=10;" parent="hRsAympE7n8ipThZUoXn-5" vertex="1">
          <mxGeometry x="2152.2320000000004" y="3131.682" width="66.929" height="19.68" as="geometry" />
        </mxCell>
        <mxCell id="UN5E2BRM_m0n_mUQd9ct-79" value="Листов" style="text;html=1;strokeColor=none;fillColor=none;align=center;verticalAlign=middle;whiteSpace=wrap;rounded=0;fontFamily=Times New Roman;fontSize=10;" parent="hRsAympE7n8ipThZUoXn-5" vertex="1">
          <mxGeometry x="2219.16" y="3131.68" width="69.75" height="19.68" as="geometry" />
        </mxCell>
        <mxCell id="UN5E2BRM_m0n_mUQd9ct-80" value="" style="rounded=0;whiteSpace=wrap;html=1;fillColor=none;" parent="hRsAympE7n8ipThZUoXn-5" vertex="1">
          <mxGeometry x="1628.0400000000002" y="3151.6099999999997" width="90.551" height="19.685" as="geometry" />
        </mxCell>
        <mxCell id="UN5E2BRM_m0n_mUQd9ct-81" value="Вершинин В. В." style="text;html=1;strokeColor=none;fillColor=none;align=center;verticalAlign=middle;whiteSpace=wrap;rounded=0;fontFamily=Times New Roman;fontSize=10;" parent="hRsAympE7n8ipThZUoXn-5" vertex="1">
          <mxGeometry x="1629.28" y="3171.03" width="88.74" height="19.68" as="geometry" />
        </mxCell>
        <mxCell id="UN5E2BRM_m0n_mUQd9ct-82" value="Железов А.П" style="text;html=1;strokeColor=none;fillColor=none;align=center;verticalAlign=middle;whiteSpace=wrap;rounded=0;fontFamily=Times New Roman;fontSize=10;" parent="hRsAympE7n8ipThZUoXn-5" vertex="1">
          <mxGeometry x="1628.597" y="3151.337" width="88.74" height="19.68" as="geometry" />
        </mxCell>
        <mxCell id="UN5E2BRM_m0n_mUQd9ct-83" value="&lt;span style=&quot;font-size: 14.0pt ; line-height: 150% ; font-family: &amp;quot;times new roman&amp;quot; , serif&quot;&gt;ВлГУ.09.03.02.10.01&lt;/span&gt;" style="text;html=1;strokeColor=none;fillColor=none;align=center;verticalAlign=middle;whiteSpace=wrap;rounded=0;fontFamily=Times New Roman;fontSize=10;" parent="hRsAympE7n8ipThZUoXn-5" vertex="1">
          <mxGeometry x="1817.56" y="3072.86" width="471.33" height="56.74" as="geometry" />
        </mxCell>
        <mxCell id="UN5E2BRM_m0n_mUQd9ct-84" value="ИСТ-120" style="text;html=1;strokeColor=none;fillColor=none;align=center;verticalAlign=middle;whiteSpace=wrap;rounded=0;fontFamily=Times New Roman;fontSize=10;" parent="hRsAympE7n8ipThZUoXn-5" vertex="1">
          <mxGeometry x="2093.18" y="3189.9" width="195.71" height="57.81" as="geometry" />
        </mxCell>
        <mxCell id="UN5E2BRM_m0n_mUQd9ct-85" value="&lt;div style=&quot;&quot;&gt;&lt;span style=&quot;font-size: 17px; background-color: initial;&quot;&gt;Информационная система&amp;nbsp; «&lt;/span&gt;&lt;span style=&quot;background-color: initial; font-size: 17px; text-align: left;&quot;&gt;Студенческая база знаний. Тесты»&lt;/span&gt;&lt;/div&gt;&lt;font style=&quot;font-size: 17px&quot;&gt;ER-диаграмма логического уровня&lt;br&gt;&lt;/font&gt;" style="text;html=1;strokeColor=none;fillColor=none;align=center;verticalAlign=middle;whiteSpace=wrap;rounded=0;fontFamily=Times New Roman;fontSize=10;" parent="hRsAympE7n8ipThZUoXn-5" vertex="1">
          <mxGeometry x="1817.58" y="3131.93" width="274.46" height="116.09" as="geometry" />
        </mxCell>
        <mxCell id="wQAFLfGIhW9gEui9MyVe-332" value="event_priority" style="shape=table;startSize=55;container=1;collapsible=1;childLayout=tableLayout;fixedRows=1;rowLines=0;fontStyle=1;align=center;resizeLast=1;fontSize=26;strokeWidth=4;" parent="hRsAympE7n8ipThZUoXn-5" vertex="1">
          <mxGeometry x="1350.39" y="1578.4199999999998" width="307.61" height="355" as="geometry">
            <mxRectangle x="1253.5" y="1413.07" width="204.724" height="35.433" as="alternateBounds" />
          </mxGeometry>
        </mxCell>
        <mxCell id="wQAFLfGIhW9gEui9MyVe-333" value="" style="shape=tableRow;horizontal=0;startSize=0;swimlaneHead=0;swimlaneBody=0;fillColor=none;collapsible=0;dropTarget=0;points=[[0,0.5],[1,0.5]];portConstraint=eastwest;top=0;left=0;right=0;bottom=1;" parent="wQAFLfGIhW9gEui9MyVe-332" vertex="1">
          <mxGeometry y="55" width="307.61" height="100" as="geometry" />
        </mxCell>
        <mxCell id="wQAFLfGIhW9gEui9MyVe-334" value="PK" style="shape=partialRectangle;connectable=0;fillColor=none;top=0;left=0;bottom=0;right=0;fontStyle=1;overflow=hidden;fontSize=18;" parent="wQAFLfGIhW9gEui9MyVe-333" vertex="1">
          <mxGeometry width="30" height="100" as="geometry">
            <mxRectangle width="30" height="100" as="alternateBounds" />
          </mxGeometry>
        </mxCell>
        <mxCell id="wQAFLfGIhW9gEui9MyVe-335" value="id" style="shape=partialRectangle;connectable=0;fillColor=none;top=0;left=0;bottom=0;right=0;align=left;spacingLeft=6;fontStyle=5;overflow=hidden;fontSize=25;" parent="wQAFLfGIhW9gEui9MyVe-333" vertex="1">
          <mxGeometry x="30" width="277.61" height="100" as="geometry">
            <mxRectangle width="277.61" height="100" as="alternateBounds" />
          </mxGeometry>
        </mxCell>
        <mxCell id="wQAFLfGIhW9gEui9MyVe-336" value="" style="shape=tableRow;horizontal=0;startSize=0;swimlaneHead=0;swimlaneBody=0;fillColor=none;collapsible=0;dropTarget=0;points=[[0,0.5],[1,0.5]];portConstraint=eastwest;top=0;left=0;right=0;bottom=0;" parent="wQAFLfGIhW9gEui9MyVe-332" vertex="1">
          <mxGeometry y="155" width="307.61" height="100" as="geometry" />
        </mxCell>
        <mxCell id="wQAFLfGIhW9gEui9MyVe-337" value="" style="shape=partialRectangle;connectable=0;fillColor=none;top=0;left=0;bottom=0;right=0;editable=1;overflow=hidden;" parent="wQAFLfGIhW9gEui9MyVe-336" vertex="1">
          <mxGeometry width="30" height="100" as="geometry">
            <mxRectangle width="30" height="100" as="alternateBounds" />
          </mxGeometry>
        </mxCell>
        <mxCell id="wQAFLfGIhW9gEui9MyVe-338" value="priority_name" style="shape=partialRectangle;connectable=0;fillColor=none;top=0;left=0;bottom=0;right=0;align=left;spacingLeft=6;overflow=hidden;fontSize=25;" parent="wQAFLfGIhW9gEui9MyVe-336" vertex="1">
          <mxGeometry x="30" width="277.61" height="100" as="geometry">
            <mxRectangle width="277.61" height="100" as="alternateBounds" />
          </mxGeometry>
        </mxCell>
        <mxCell id="wQAFLfGIhW9gEui9MyVe-339" value="" style="shape=tableRow;horizontal=0;startSize=0;swimlaneHead=0;swimlaneBody=0;fillColor=none;collapsible=0;dropTarget=0;points=[[0,0.5],[1,0.5]];portConstraint=eastwest;top=0;left=0;right=0;bottom=0;" parent="wQAFLfGIhW9gEui9MyVe-332" vertex="1">
          <mxGeometry y="255" width="307.61" height="100" as="geometry" />
        </mxCell>
        <mxCell id="wQAFLfGIhW9gEui9MyVe-340" value="" style="shape=partialRectangle;connectable=0;fillColor=none;top=0;left=0;bottom=0;right=0;editable=1;overflow=hidden;" parent="wQAFLfGIhW9gEui9MyVe-339" vertex="1">
          <mxGeometry width="30" height="100" as="geometry">
            <mxRectangle width="30" height="100" as="alternateBounds" />
          </mxGeometry>
        </mxCell>
        <mxCell id="wQAFLfGIhW9gEui9MyVe-341" value="priority_description" style="shape=partialRectangle;connectable=0;fillColor=none;top=0;left=0;bottom=0;right=0;align=left;spacingLeft=6;overflow=hidden;fontSize=25;" parent="wQAFLfGIhW9gEui9MyVe-339" vertex="1">
          <mxGeometry x="30" width="277.61" height="100" as="geometry">
            <mxRectangle width="277.61" height="100" as="alternateBounds" />
          </mxGeometry>
        </mxCell>
        <mxCell id="wQAFLfGIhW9gEui9MyVe-410" value="quiz_history" style="shape=table;startSize=55;container=1;collapsible=1;childLayout=tableLayout;fixedRows=1;rowLines=0;fontStyle=1;align=center;resizeLast=1;fontSize=26;strokeWidth=4;" parent="hRsAympE7n8ipThZUoXn-5" vertex="1">
          <mxGeometry x="1787.63" y="629.6" width="417.09" height="455" as="geometry" />
        </mxCell>
        <mxCell id="wQAFLfGIhW9gEui9MyVe-411" value="" style="shape=tableRow;horizontal=0;startSize=0;swimlaneHead=0;swimlaneBody=0;fillColor=none;collapsible=0;dropTarget=0;points=[[0,0.5],[1,0.5]];portConstraint=eastwest;top=0;left=0;right=0;bottom=1;" parent="wQAFLfGIhW9gEui9MyVe-410" vertex="1">
          <mxGeometry y="55" width="417.09" height="100" as="geometry" />
        </mxCell>
        <mxCell id="wQAFLfGIhW9gEui9MyVe-412" value="PK" style="shape=partialRectangle;connectable=0;fillColor=none;top=0;left=0;bottom=0;right=0;fontStyle=1;overflow=hidden;fontSize=18;" parent="wQAFLfGIhW9gEui9MyVe-411" vertex="1">
          <mxGeometry width="30" height="100" as="geometry">
            <mxRectangle width="30" height="100" as="alternateBounds" />
          </mxGeometry>
        </mxCell>
        <mxCell id="wQAFLfGIhW9gEui9MyVe-413" value="id" style="shape=partialRectangle;connectable=0;fillColor=none;top=0;left=0;bottom=0;right=0;align=left;spacingLeft=6;fontStyle=5;overflow=hidden;fontSize=25;" parent="wQAFLfGIhW9gEui9MyVe-411" vertex="1">
          <mxGeometry x="30" width="387.09" height="100" as="geometry">
            <mxRectangle width="387.09" height="100" as="alternateBounds" />
          </mxGeometry>
        </mxCell>
        <mxCell id="wQAFLfGIhW9gEui9MyVe-414" value="" style="shape=tableRow;horizontal=0;startSize=0;swimlaneHead=0;swimlaneBody=0;fillColor=none;collapsible=0;dropTarget=0;points=[[0,0.5],[1,0.5]];portConstraint=eastwest;top=0;left=0;right=0;bottom=0;" parent="wQAFLfGIhW9gEui9MyVe-410" vertex="1">
          <mxGeometry y="155" width="417.09" height="100" as="geometry" />
        </mxCell>
        <mxCell id="wQAFLfGIhW9gEui9MyVe-415" value="FK" style="shape=partialRectangle;connectable=0;fillColor=none;top=0;left=0;bottom=0;right=0;fontStyle=0;overflow=hidden;fontSize=18;" parent="wQAFLfGIhW9gEui9MyVe-414" vertex="1">
          <mxGeometry width="30" height="100" as="geometry">
            <mxRectangle width="30" height="100" as="alternateBounds" />
          </mxGeometry>
        </mxCell>
        <mxCell id="wQAFLfGIhW9gEui9MyVe-416" value="question_id" style="shape=partialRectangle;connectable=0;fillColor=none;top=0;left=0;bottom=0;right=0;align=left;spacingLeft=6;fontStyle=0;overflow=hidden;fontSize=25;" parent="wQAFLfGIhW9gEui9MyVe-414" vertex="1">
          <mxGeometry x="30" width="387.09" height="100" as="geometry">
            <mxRectangle width="387.09" height="100" as="alternateBounds" />
          </mxGeometry>
        </mxCell>
        <mxCell id="wQAFLfGIhW9gEui9MyVe-417" value="" style="shape=tableRow;horizontal=0;startSize=0;swimlaneHead=0;swimlaneBody=0;fillColor=none;collapsible=0;dropTarget=0;points=[[0,0.5],[1,0.5]];portConstraint=eastwest;top=0;left=0;right=0;bottom=0;" parent="wQAFLfGIhW9gEui9MyVe-410" vertex="1">
          <mxGeometry y="255" width="417.09" height="100" as="geometry" />
        </mxCell>
        <mxCell id="wQAFLfGIhW9gEui9MyVe-418" value="FK" style="shape=partialRectangle;connectable=0;fillColor=none;top=0;left=0;bottom=0;right=0;fontStyle=0;overflow=hidden;fontSize=18;" parent="wQAFLfGIhW9gEui9MyVe-417" vertex="1">
          <mxGeometry width="30" height="100" as="geometry">
            <mxRectangle width="30" height="100" as="alternateBounds" />
          </mxGeometry>
        </mxCell>
        <mxCell id="wQAFLfGIhW9gEui9MyVe-419" value="selected_variant_id" style="shape=partialRectangle;connectable=0;fillColor=none;top=0;left=0;bottom=0;right=0;align=left;spacingLeft=6;fontStyle=0;overflow=hidden;fontSize=25;" parent="wQAFLfGIhW9gEui9MyVe-417" vertex="1">
          <mxGeometry x="30" width="387.09" height="100" as="geometry">
            <mxRectangle width="387.09" height="100" as="alternateBounds" />
          </mxGeometry>
        </mxCell>
        <mxCell id="wQAFLfGIhW9gEui9MyVe-420" value="" style="shape=tableRow;horizontal=0;startSize=0;swimlaneHead=0;swimlaneBody=0;fillColor=none;collapsible=0;dropTarget=0;points=[[0,0.5],[1,0.5]];portConstraint=eastwest;top=0;left=0;right=0;bottom=0;" parent="wQAFLfGIhW9gEui9MyVe-410" vertex="1">
          <mxGeometry y="355" width="417.09" height="100" as="geometry" />
        </mxCell>
        <mxCell id="wQAFLfGIhW9gEui9MyVe-421" value="FK" style="shape=partialRectangle;connectable=0;fillColor=none;top=0;left=0;bottom=0;right=0;fontStyle=0;overflow=hidden;fontSize=18;" parent="wQAFLfGIhW9gEui9MyVe-420" vertex="1">
          <mxGeometry width="30" height="100" as="geometry">
            <mxRectangle width="30" height="100" as="alternateBounds" />
          </mxGeometry>
        </mxCell>
        <mxCell id="wQAFLfGIhW9gEui9MyVe-422" value="user_id, uuid" style="shape=partialRectangle;connectable=0;fillColor=none;top=0;left=0;bottom=0;right=0;align=left;spacingLeft=6;fontStyle=0;overflow=hidden;fontSize=25;" parent="wQAFLfGIhW9gEui9MyVe-420" vertex="1">
          <mxGeometry x="30" width="387.09" height="100" as="geometry">
            <mxRectangle width="387.09" height="100" as="alternateBounds" />
          </mxGeometry>
        </mxCell>
        <mxCell id="wQAFLfGIhW9gEui9MyVe-271" value="group" style="shape=table;startSize=55;container=1;collapsible=1;childLayout=tableLayout;fixedRows=1;rowLines=0;fontStyle=1;align=center;resizeLast=1;fontSize=26;shadow=0;strokeWidth=4;" parent="hRsAympE7n8ipThZUoXn-5" vertex="1">
          <mxGeometry x="669.29" y="2153.22" width="429.13" height="355" as="geometry" />
        </mxCell>
        <mxCell id="wQAFLfGIhW9gEui9MyVe-272" value="" style="shape=tableRow;horizontal=0;startSize=0;swimlaneHead=0;swimlaneBody=0;fillColor=none;collapsible=0;dropTarget=0;points=[[0,0.5],[1,0.5]];portConstraint=eastwest;top=0;left=0;right=0;bottom=1;" parent="wQAFLfGIhW9gEui9MyVe-271" vertex="1">
          <mxGeometry y="55" width="429.13" height="100" as="geometry" />
        </mxCell>
        <mxCell id="wQAFLfGIhW9gEui9MyVe-273" value="PK" style="shape=partialRectangle;connectable=0;fillColor=none;top=0;left=0;bottom=0;right=0;fontStyle=1;overflow=hidden;fontSize=18;" parent="wQAFLfGIhW9gEui9MyVe-272" vertex="1">
          <mxGeometry width="30" height="100" as="geometry">
            <mxRectangle width="30" height="100" as="alternateBounds" />
          </mxGeometry>
        </mxCell>
        <mxCell id="wQAFLfGIhW9gEui9MyVe-274" value="id" style="shape=partialRectangle;connectable=0;fillColor=none;top=0;left=0;bottom=0;right=0;align=left;spacingLeft=6;fontStyle=5;overflow=hidden;fontSize=25;" parent="wQAFLfGIhW9gEui9MyVe-272" vertex="1">
          <mxGeometry x="30" width="399.13" height="100" as="geometry">
            <mxRectangle width="399.13" height="100" as="alternateBounds" />
          </mxGeometry>
        </mxCell>
        <mxCell id="wQAFLfGIhW9gEui9MyVe-275" value="" style="shape=tableRow;horizontal=0;startSize=0;swimlaneHead=0;swimlaneBody=0;fillColor=none;collapsible=0;dropTarget=0;points=[[0,0.5],[1,0.5]];portConstraint=eastwest;top=0;left=0;right=0;bottom=0;" parent="wQAFLfGIhW9gEui9MyVe-271" vertex="1">
          <mxGeometry y="155" width="429.13" height="100" as="geometry" />
        </mxCell>
        <mxCell id="wQAFLfGIhW9gEui9MyVe-276" value="FK" style="shape=partialRectangle;connectable=0;fillColor=none;top=0;left=0;bottom=0;right=0;fontStyle=0;overflow=hidden;fontSize=18;" parent="wQAFLfGIhW9gEui9MyVe-275" vertex="1">
          <mxGeometry width="30" height="100" as="geometry">
            <mxRectangle width="30" height="100" as="alternateBounds" />
          </mxGeometry>
        </mxCell>
        <mxCell id="wQAFLfGIhW9gEui9MyVe-277" value="speciality_id" style="shape=partialRectangle;connectable=0;fillColor=none;top=0;left=0;bottom=0;right=0;align=left;spacingLeft=6;fontStyle=0;overflow=hidden;fontSize=25;" parent="wQAFLfGIhW9gEui9MyVe-275" vertex="1">
          <mxGeometry x="30" width="399.13" height="100" as="geometry">
            <mxRectangle width="399.13" height="100" as="alternateBounds" />
          </mxGeometry>
        </mxCell>
        <mxCell id="wQAFLfGIhW9gEui9MyVe-281" value="" style="shape=tableRow;horizontal=0;startSize=0;swimlaneHead=0;swimlaneBody=0;fillColor=none;collapsible=0;dropTarget=0;points=[[0,0.5],[1,0.5]];portConstraint=eastwest;top=0;left=0;right=0;bottom=0;" parent="wQAFLfGIhW9gEui9MyVe-271" vertex="1">
          <mxGeometry y="255" width="429.13" height="100" as="geometry" />
        </mxCell>
        <mxCell id="wQAFLfGIhW9gEui9MyVe-282" value="" style="shape=partialRectangle;connectable=0;fillColor=none;top=0;left=0;bottom=0;right=0;editable=1;overflow=hidden;" parent="wQAFLfGIhW9gEui9MyVe-281" vertex="1">
          <mxGeometry width="30" height="100" as="geometry">
            <mxRectangle width="30" height="100" as="alternateBounds" />
          </mxGeometry>
        </mxCell>
        <mxCell id="wQAFLfGIhW9gEui9MyVe-283" value="group_name" style="shape=partialRectangle;connectable=0;fillColor=none;top=0;left=0;bottom=0;right=0;align=left;spacingLeft=6;overflow=hidden;fontSize=25;" parent="wQAFLfGIhW9gEui9MyVe-281" vertex="1">
          <mxGeometry x="30" width="399.13" height="100" as="geometry">
            <mxRectangle width="399.13" height="100" as="alternateBounds" />
          </mxGeometry>
        </mxCell>
        <mxCell id="wQAFLfGIhW9gEui9MyVe-284" value="trash" style="shape=table;startSize=55;container=1;collapsible=1;childLayout=tableLayout;fixedRows=1;rowLines=0;fontStyle=1;align=center;resizeLast=1;fontSize=26;shadow=0;strokeWidth=4;" parent="hRsAympE7n8ipThZUoXn-5" vertex="1">
          <mxGeometry x="35.44" y="2507.55" width="377.95" height="457.01" as="geometry" />
        </mxCell>
        <mxCell id="wQAFLfGIhW9gEui9MyVe-285" value="" style="shape=tableRow;horizontal=0;startSize=0;swimlaneHead=0;swimlaneBody=0;fillColor=none;collapsible=0;dropTarget=0;points=[[0,0.5],[1,0.5]];portConstraint=eastwest;top=0;left=0;right=0;bottom=1;" parent="wQAFLfGIhW9gEui9MyVe-284" vertex="1">
          <mxGeometry y="55" width="377.95" height="100" as="geometry" />
        </mxCell>
        <mxCell id="wQAFLfGIhW9gEui9MyVe-286" value="PK" style="shape=partialRectangle;connectable=0;fillColor=none;top=0;left=0;bottom=0;right=0;fontStyle=1;overflow=hidden;fontSize=18;" parent="wQAFLfGIhW9gEui9MyVe-285" vertex="1">
          <mxGeometry width="30" height="100" as="geometry">
            <mxRectangle width="30" height="100" as="alternateBounds" />
          </mxGeometry>
        </mxCell>
        <mxCell id="wQAFLfGIhW9gEui9MyVe-287" value="id" style="shape=partialRectangle;connectable=0;fillColor=none;top=0;left=0;bottom=0;right=0;align=left;spacingLeft=6;fontStyle=5;overflow=hidden;fontSize=25;" parent="wQAFLfGIhW9gEui9MyVe-285" vertex="1">
          <mxGeometry x="30" width="347.95" height="100" as="geometry">
            <mxRectangle width="347.95" height="100" as="alternateBounds" />
          </mxGeometry>
        </mxCell>
        <mxCell id="wQAFLfGIhW9gEui9MyVe-288" value="" style="shape=tableRow;horizontal=0;startSize=0;swimlaneHead=0;swimlaneBody=0;fillColor=none;collapsible=0;dropTarget=0;points=[[0,0.5],[1,0.5]];portConstraint=eastwest;top=0;left=0;right=0;bottom=0;" parent="wQAFLfGIhW9gEui9MyVe-284" vertex="1">
          <mxGeometry y="155" width="377.95" height="100" as="geometry" />
        </mxCell>
        <mxCell id="wQAFLfGIhW9gEui9MyVe-289" value="FK" style="shape=partialRectangle;connectable=0;fillColor=none;top=0;left=0;bottom=0;right=0;fontStyle=0;overflow=hidden;fontSize=18;" parent="wQAFLfGIhW9gEui9MyVe-288" vertex="1">
          <mxGeometry width="30" height="100" as="geometry">
            <mxRectangle width="30" height="100" as="alternateBounds" />
          </mxGeometry>
        </mxCell>
        <mxCell id="wQAFLfGIhW9gEui9MyVe-290" value="group_id" style="shape=partialRectangle;connectable=0;fillColor=none;top=0;left=0;bottom=0;right=0;align=left;spacingLeft=6;fontStyle=0;overflow=hidden;fontSize=25;" parent="wQAFLfGIhW9gEui9MyVe-288" vertex="1">
          <mxGeometry x="30" width="347.95" height="100" as="geometry">
            <mxRectangle width="347.95" height="100" as="alternateBounds" />
          </mxGeometry>
        </mxCell>
        <mxCell id="wQAFLfGIhW9gEui9MyVe-291" value="" style="shape=tableRow;horizontal=0;startSize=0;swimlaneHead=0;swimlaneBody=0;fillColor=none;collapsible=0;dropTarget=0;points=[[0,0.5],[1,0.5]];portConstraint=eastwest;top=0;left=0;right=0;bottom=0;" parent="wQAFLfGIhW9gEui9MyVe-284" vertex="1">
          <mxGeometry y="255" width="377.95" height="100" as="geometry" />
        </mxCell>
        <mxCell id="wQAFLfGIhW9gEui9MyVe-292" value="" style="shape=partialRectangle;connectable=0;fillColor=none;top=0;left=0;bottom=0;right=0;editable=1;overflow=hidden;" parent="wQAFLfGIhW9gEui9MyVe-291" vertex="1">
          <mxGeometry width="30" height="100" as="geometry">
            <mxRectangle width="30" height="100" as="alternateBounds" />
          </mxGeometry>
        </mxCell>
        <mxCell id="wQAFLfGIhW9gEui9MyVe-293" value="deleted_id" style="shape=partialRectangle;connectable=0;fillColor=none;top=0;left=0;bottom=0;right=0;align=left;spacingLeft=6;overflow=hidden;fontSize=25;" parent="wQAFLfGIhW9gEui9MyVe-291" vertex="1">
          <mxGeometry x="30" width="347.95" height="100" as="geometry">
            <mxRectangle width="347.95" height="100" as="alternateBounds" />
          </mxGeometry>
        </mxCell>
        <mxCell id="wQAFLfGIhW9gEui9MyVe-294" value="" style="shape=tableRow;horizontal=0;startSize=0;swimlaneHead=0;swimlaneBody=0;fillColor=none;collapsible=0;dropTarget=0;points=[[0,0.5],[1,0.5]];portConstraint=eastwest;top=0;left=0;right=0;bottom=0;" parent="wQAFLfGIhW9gEui9MyVe-284" vertex="1">
          <mxGeometry y="355" width="377.95" height="100" as="geometry" />
        </mxCell>
        <mxCell id="wQAFLfGIhW9gEui9MyVe-295" value="" style="shape=partialRectangle;connectable=0;fillColor=none;top=0;left=0;bottom=0;right=0;editable=1;overflow=hidden;" parent="wQAFLfGIhW9gEui9MyVe-294" vertex="1">
          <mxGeometry width="30" height="100" as="geometry">
            <mxRectangle width="30" height="100" as="alternateBounds" />
          </mxGeometry>
        </mxCell>
        <mxCell id="wQAFLfGIhW9gEui9MyVe-296" value="deleting_date" style="shape=partialRectangle;connectable=0;fillColor=none;top=0;left=0;bottom=0;right=0;align=left;spacingLeft=6;overflow=hidden;fontSize=25;" parent="wQAFLfGIhW9gEui9MyVe-294" vertex="1">
          <mxGeometry x="30" width="347.95" height="100" as="geometry">
            <mxRectangle width="347.95" height="100" as="alternateBounds" />
          </mxGeometry>
        </mxCell>
        <mxCell id="wQAFLfGIhW9gEui9MyVe-451" value="" style="edgeStyle=elbowEdgeStyle;fontSize=12;html=1;endArrow=ERoneToMany;rounded=0;exitX=0;exitY=0.5;exitDx=0;exitDy=0;entryX=1;entryY=0.5;entryDx=0;entryDy=0;strokeWidth=4;" parent="hRsAympE7n8ipThZUoXn-5" source="wQAFLfGIhW9gEui9MyVe-272" target="wQAFLfGIhW9gEui9MyVe-288" edge="1">
          <mxGeometry width="100" height="100" relative="1" as="geometry">
            <mxPoint x="664.5991463414633" y="2291.4739344262293" as="sourcePoint" />
            <mxPoint x="798.3424390243902" y="2062.9985245901635" as="targetPoint" />
            <Array as="points">
              <mxPoint x="508" y="2433" />
              <mxPoint x="492" y="2137" />
            </Array>
          </mxGeometry>
        </mxCell>
        <mxCell id="wQAFLfGIhW9gEui9MyVe-226" value="quiz" style="shape=table;startSize=55;container=1;collapsible=1;childLayout=tableLayout;fixedRows=1;rowLines=0;fontStyle=1;align=center;resizeLast=1;fontSize=26;strokeWidth=4;" parent="hRsAympE7n8ipThZUoXn-5" vertex="1">
          <mxGeometry x="204.72999999999996" y="357.95" width="415.96" height="555" as="geometry" />
        </mxCell>
        <mxCell id="wQAFLfGIhW9gEui9MyVe-227" value="" style="shape=tableRow;horizontal=0;startSize=0;swimlaneHead=0;swimlaneBody=0;fillColor=none;collapsible=0;dropTarget=0;points=[[0,0.5],[1,0.5]];portConstraint=eastwest;top=0;left=0;right=0;bottom=1;" parent="wQAFLfGIhW9gEui9MyVe-226" vertex="1">
          <mxGeometry y="55" width="415.96" height="100" as="geometry" />
        </mxCell>
        <mxCell id="wQAFLfGIhW9gEui9MyVe-228" value="PK" style="shape=partialRectangle;connectable=0;fillColor=none;top=0;left=0;bottom=0;right=0;fontStyle=1;overflow=hidden;fontSize=18;" parent="wQAFLfGIhW9gEui9MyVe-227" vertex="1">
          <mxGeometry width="30" height="100" as="geometry">
            <mxRectangle width="30" height="100" as="alternateBounds" />
          </mxGeometry>
        </mxCell>
        <mxCell id="wQAFLfGIhW9gEui9MyVe-229" value="id" style="shape=partialRectangle;connectable=0;fillColor=none;top=0;left=0;bottom=0;right=0;align=left;spacingLeft=6;fontStyle=5;overflow=hidden;fontSize=25;" parent="wQAFLfGIhW9gEui9MyVe-227" vertex="1">
          <mxGeometry x="30" width="385.96" height="100" as="geometry">
            <mxRectangle width="385.96" height="100" as="alternateBounds" />
          </mxGeometry>
        </mxCell>
        <mxCell id="wQAFLfGIhW9gEui9MyVe-230" value="" style="shape=tableRow;horizontal=0;startSize=0;swimlaneHead=0;swimlaneBody=0;fillColor=none;collapsible=0;dropTarget=0;points=[[0,0.5],[1,0.5]];portConstraint=eastwest;top=0;left=0;right=0;bottom=0;" parent="wQAFLfGIhW9gEui9MyVe-226" vertex="1">
          <mxGeometry y="155" width="415.96" height="100" as="geometry" />
        </mxCell>
        <mxCell id="wQAFLfGIhW9gEui9MyVe-231" value="FK" style="shape=partialRectangle;connectable=0;fillColor=none;top=0;left=0;bottom=0;right=0;fontStyle=0;overflow=hidden;fontSize=18;" parent="wQAFLfGIhW9gEui9MyVe-230" vertex="1">
          <mxGeometry width="30" height="100" as="geometry">
            <mxRectangle width="30" height="100" as="alternateBounds" />
          </mxGeometry>
        </mxCell>
        <mxCell id="wQAFLfGIhW9gEui9MyVe-232" value="subject_id" style="shape=partialRectangle;connectable=0;fillColor=none;top=0;left=0;bottom=0;right=0;align=left;spacingLeft=6;fontStyle=0;overflow=hidden;fontSize=25;" parent="wQAFLfGIhW9gEui9MyVe-230" vertex="1">
          <mxGeometry x="30" width="385.96" height="100" as="geometry">
            <mxRectangle width="385.96" height="100" as="alternateBounds" />
          </mxGeometry>
        </mxCell>
        <mxCell id="wQAFLfGIhW9gEui9MyVe-233" value="" style="shape=tableRow;horizontal=0;startSize=0;swimlaneHead=0;swimlaneBody=0;fillColor=none;collapsible=0;dropTarget=0;points=[[0,0.5],[1,0.5]];portConstraint=eastwest;top=0;left=0;right=0;bottom=0;" parent="wQAFLfGIhW9gEui9MyVe-226" vertex="1">
          <mxGeometry y="255" width="415.96" height="100" as="geometry" />
        </mxCell>
        <mxCell id="wQAFLfGIhW9gEui9MyVe-234" value="" style="shape=partialRectangle;connectable=0;fillColor=none;top=0;left=0;bottom=0;right=0;editable=1;overflow=hidden;" parent="wQAFLfGIhW9gEui9MyVe-233" vertex="1">
          <mxGeometry width="30" height="100" as="geometry">
            <mxRectangle width="30" height="100" as="alternateBounds" />
          </mxGeometry>
        </mxCell>
        <mxCell id="wQAFLfGIhW9gEui9MyVe-235" value="quiz_name" style="shape=partialRectangle;connectable=0;fillColor=none;top=0;left=0;bottom=0;right=0;align=left;spacingLeft=6;overflow=hidden;fontSize=25;" parent="wQAFLfGIhW9gEui9MyVe-233" vertex="1">
          <mxGeometry x="30" width="385.96" height="100" as="geometry">
            <mxRectangle width="385.96" height="100" as="alternateBounds" />
          </mxGeometry>
        </mxCell>
        <mxCell id="wQAFLfGIhW9gEui9MyVe-236" value="" style="shape=tableRow;horizontal=0;startSize=0;swimlaneHead=0;swimlaneBody=0;fillColor=none;collapsible=0;dropTarget=0;points=[[0,0.5],[1,0.5]];portConstraint=eastwest;top=0;left=0;right=0;bottom=0;" parent="wQAFLfGIhW9gEui9MyVe-226" vertex="1">
          <mxGeometry y="355" width="415.96" height="100" as="geometry" />
        </mxCell>
        <mxCell id="wQAFLfGIhW9gEui9MyVe-237" value="" style="shape=partialRectangle;connectable=0;fillColor=none;top=0;left=0;bottom=0;right=0;editable=1;overflow=hidden;" parent="wQAFLfGIhW9gEui9MyVe-236" vertex="1">
          <mxGeometry width="30" height="100" as="geometry">
            <mxRectangle width="30" height="100" as="alternateBounds" />
          </mxGeometry>
        </mxCell>
        <mxCell id="wQAFLfGIhW9gEui9MyVe-238" value="quiz_description" style="shape=partialRectangle;connectable=0;fillColor=none;top=0;left=0;bottom=0;right=0;align=left;spacingLeft=6;overflow=hidden;fontSize=25;" parent="wQAFLfGIhW9gEui9MyVe-236" vertex="1">
          <mxGeometry x="30" width="385.96" height="100" as="geometry">
            <mxRectangle width="385.96" height="100" as="alternateBounds" />
          </mxGeometry>
        </mxCell>
        <mxCell id="wQAFLfGIhW9gEui9MyVe-239" value="" style="shape=tableRow;horizontal=0;startSize=0;swimlaneHead=0;swimlaneBody=0;fillColor=none;collapsible=0;dropTarget=0;points=[[0,0.5],[1,0.5]];portConstraint=eastwest;top=0;left=0;right=0;bottom=0;" parent="wQAFLfGIhW9gEui9MyVe-226" vertex="1">
          <mxGeometry y="455" width="415.96" height="100" as="geometry" />
        </mxCell>
        <mxCell id="wQAFLfGIhW9gEui9MyVe-240" value="" style="shape=partialRectangle;connectable=0;fillColor=none;top=0;left=0;bottom=0;right=0;editable=1;overflow=hidden;" parent="wQAFLfGIhW9gEui9MyVe-239" vertex="1">
          <mxGeometry width="30" height="100" as="geometry">
            <mxRectangle width="30" height="100" as="alternateBounds" />
          </mxGeometry>
        </mxCell>
        <mxCell id="wQAFLfGIhW9gEui9MyVe-241" value="questions_amount" style="shape=partialRectangle;connectable=0;fillColor=none;top=0;left=0;bottom=0;right=0;align=left;spacingLeft=6;overflow=hidden;fontSize=25;" parent="wQAFLfGIhW9gEui9MyVe-239" vertex="1">
          <mxGeometry x="30" width="385.96" height="100" as="geometry">
            <mxRectangle width="385.96" height="100" as="alternateBounds" />
          </mxGeometry>
        </mxCell>
        <mxCell id="wQAFLfGIhW9gEui9MyVe-255" value="question" style="shape=table;startSize=55;container=1;collapsible=1;childLayout=tableLayout;fixedRows=1;rowLines=0;fontStyle=1;align=center;resizeLast=1;fontSize=26;strokeWidth=4;" parent="hRsAympE7n8ipThZUoXn-5" vertex="1">
          <mxGeometry x="814.96" y="141.42" width="465.84" height="555" as="geometry" />
        </mxCell>
        <mxCell id="wQAFLfGIhW9gEui9MyVe-256" value="" style="shape=tableRow;horizontal=0;startSize=0;swimlaneHead=0;swimlaneBody=0;fillColor=none;collapsible=0;dropTarget=0;points=[[0,0.5],[1,0.5]];portConstraint=eastwest;top=0;left=0;right=0;bottom=1;" parent="wQAFLfGIhW9gEui9MyVe-255" vertex="1">
          <mxGeometry y="55" width="465.84" height="100" as="geometry" />
        </mxCell>
        <mxCell id="wQAFLfGIhW9gEui9MyVe-257" value="PK" style="shape=partialRectangle;connectable=0;fillColor=none;top=0;left=0;bottom=0;right=0;fontStyle=1;overflow=hidden;fontSize=18;" parent="wQAFLfGIhW9gEui9MyVe-256" vertex="1">
          <mxGeometry width="30" height="100" as="geometry">
            <mxRectangle width="30" height="100" as="alternateBounds" />
          </mxGeometry>
        </mxCell>
        <mxCell id="wQAFLfGIhW9gEui9MyVe-258" value="id" style="shape=partialRectangle;connectable=0;fillColor=none;top=0;left=0;bottom=0;right=0;align=left;spacingLeft=6;fontStyle=5;overflow=hidden;fontSize=25;" parent="wQAFLfGIhW9gEui9MyVe-256" vertex="1">
          <mxGeometry x="30" width="435.84" height="100" as="geometry">
            <mxRectangle width="435.84" height="100" as="alternateBounds" />
          </mxGeometry>
        </mxCell>
        <mxCell id="wQAFLfGIhW9gEui9MyVe-259" value="" style="shape=tableRow;horizontal=0;startSize=0;swimlaneHead=0;swimlaneBody=0;fillColor=none;collapsible=0;dropTarget=0;points=[[0,0.5],[1,0.5]];portConstraint=eastwest;top=0;left=0;right=0;bottom=0;" parent="wQAFLfGIhW9gEui9MyVe-255" vertex="1">
          <mxGeometry y="155" width="465.84" height="100" as="geometry" />
        </mxCell>
        <mxCell id="wQAFLfGIhW9gEui9MyVe-260" value="FK" style="shape=partialRectangle;connectable=0;fillColor=none;top=0;left=0;bottom=0;right=0;editable=1;overflow=hidden;fontSize=18;" parent="wQAFLfGIhW9gEui9MyVe-259" vertex="1">
          <mxGeometry width="30" height="100" as="geometry">
            <mxRectangle width="30" height="100" as="alternateBounds" />
          </mxGeometry>
        </mxCell>
        <mxCell id="wQAFLfGIhW9gEui9MyVe-261" value="quiz_id" style="shape=partialRectangle;connectable=0;fillColor=none;top=0;left=0;bottom=0;right=0;align=left;spacingLeft=6;overflow=hidden;fontSize=25;" parent="wQAFLfGIhW9gEui9MyVe-259" vertex="1">
          <mxGeometry x="30" width="435.84" height="100" as="geometry">
            <mxRectangle width="435.84" height="100" as="alternateBounds" />
          </mxGeometry>
        </mxCell>
        <mxCell id="wQAFLfGIhW9gEui9MyVe-262" value="" style="shape=tableRow;horizontal=0;startSize=0;swimlaneHead=0;swimlaneBody=0;fillColor=none;collapsible=0;dropTarget=0;points=[[0,0.5],[1,0.5]];portConstraint=eastwest;top=0;left=0;right=0;bottom=0;" parent="wQAFLfGIhW9gEui9MyVe-255" vertex="1">
          <mxGeometry y="255" width="465.84" height="100" as="geometry" />
        </mxCell>
        <mxCell id="wQAFLfGIhW9gEui9MyVe-263" value="" style="shape=partialRectangle;connectable=0;fillColor=none;top=0;left=0;bottom=0;right=0;editable=1;overflow=hidden;" parent="wQAFLfGIhW9gEui9MyVe-262" vertex="1">
          <mxGeometry width="30" height="100" as="geometry">
            <mxRectangle width="30" height="100" as="alternateBounds" />
          </mxGeometry>
        </mxCell>
        <mxCell id="wQAFLfGIhW9gEui9MyVe-264" value="question_text" style="shape=partialRectangle;connectable=0;fillColor=none;top=0;left=0;bottom=0;right=0;align=left;spacingLeft=6;overflow=hidden;fontSize=25;" parent="wQAFLfGIhW9gEui9MyVe-262" vertex="1">
          <mxGeometry x="30" width="435.84" height="100" as="geometry">
            <mxRectangle width="435.84" height="100" as="alternateBounds" />
          </mxGeometry>
        </mxCell>
        <mxCell id="wQAFLfGIhW9gEui9MyVe-265" value="" style="shape=tableRow;horizontal=0;startSize=0;swimlaneHead=0;swimlaneBody=0;fillColor=none;collapsible=0;dropTarget=0;points=[[0,0.5],[1,0.5]];portConstraint=eastwest;top=0;left=0;right=0;bottom=0;" parent="wQAFLfGIhW9gEui9MyVe-255" vertex="1">
          <mxGeometry y="355" width="465.84" height="100" as="geometry" />
        </mxCell>
        <mxCell id="wQAFLfGIhW9gEui9MyVe-266" value="" style="shape=partialRectangle;connectable=0;fillColor=none;top=0;left=0;bottom=0;right=0;editable=1;overflow=hidden;" parent="wQAFLfGIhW9gEui9MyVe-265" vertex="1">
          <mxGeometry width="30" height="100" as="geometry">
            <mxRectangle width="30" height="100" as="alternateBounds" />
          </mxGeometry>
        </mxCell>
        <mxCell id="wQAFLfGIhW9gEui9MyVe-267" value="correct_answers_amount" style="shape=partialRectangle;connectable=0;fillColor=none;top=0;left=0;bottom=0;right=0;align=left;spacingLeft=6;overflow=hidden;fontSize=25;" parent="wQAFLfGIhW9gEui9MyVe-265" vertex="1">
          <mxGeometry x="30" width="435.84" height="100" as="geometry">
            <mxRectangle width="435.84" height="100" as="alternateBounds" />
          </mxGeometry>
        </mxCell>
        <mxCell id="wQAFLfGIhW9gEui9MyVe-268" value="" style="shape=tableRow;horizontal=0;startSize=0;swimlaneHead=0;swimlaneBody=0;fillColor=none;collapsible=0;dropTarget=0;points=[[0,0.5],[1,0.5]];portConstraint=eastwest;top=0;left=0;right=0;bottom=0;" parent="wQAFLfGIhW9gEui9MyVe-255" vertex="1">
          <mxGeometry y="455" width="465.84" height="100" as="geometry" />
        </mxCell>
        <mxCell id="wQAFLfGIhW9gEui9MyVe-269" value="" style="shape=partialRectangle;connectable=0;fillColor=none;top=0;left=0;bottom=0;right=0;editable=1;overflow=hidden;" parent="wQAFLfGIhW9gEui9MyVe-268" vertex="1">
          <mxGeometry width="30" height="100" as="geometry">
            <mxRectangle width="30" height="100" as="alternateBounds" />
          </mxGeometry>
        </mxCell>
        <mxCell id="wQAFLfGIhW9gEui9MyVe-270" value="total_answers_amount" style="shape=partialRectangle;connectable=0;fillColor=none;top=0;left=0;bottom=0;right=0;align=left;spacingLeft=6;overflow=hidden;fontSize=25;" parent="wQAFLfGIhW9gEui9MyVe-268" vertex="1">
          <mxGeometry x="30" width="435.84" height="100" as="geometry">
            <mxRectangle width="435.84" height="100" as="alternateBounds" />
          </mxGeometry>
        </mxCell>
        <mxCell id="wQAFLfGIhW9gEui9MyVe-423" value="" style="edgeStyle=elbowEdgeStyle;fontSize=12;html=1;endArrow=ERoneToMany;rounded=0;entryX=0;entryY=0.5;entryDx=0;entryDy=0;exitX=1;exitY=0.5;exitDx=0;exitDy=0;strokeWidth=4;" parent="hRsAympE7n8ipThZUoXn-5" source="wQAFLfGIhW9gEui9MyVe-256" target="wQAFLfGIhW9gEui9MyVe-414" edge="1">
          <mxGeometry width="100" height="100" relative="1" as="geometry">
            <mxPoint x="1306.566951219512" y="3365.3083606557375" as="sourcePoint" />
            <mxPoint x="1440.310243902439" y="3136.8329508196725" as="targetPoint" />
            <Array as="points">
              <mxPoint x="1397.38" y="547" />
            </Array>
          </mxGeometry>
        </mxCell>
        <mxCell id="wQAFLfGIhW9gEui9MyVe-343" value="" style="edgeStyle=elbowEdgeStyle;fontSize=12;html=1;endArrow=ERoneToMany;rounded=0;entryX=0;entryY=0.5;entryDx=0;entryDy=0;exitX=1;exitY=0.5;exitDx=0;exitDy=0;strokeWidth=4;" parent="hRsAympE7n8ipThZUoXn-5" source="wQAFLfGIhW9gEui9MyVe-227" target="wQAFLfGIhW9gEui9MyVe-259" edge="1">
          <mxGeometry width="100" height="100" relative="1" as="geometry">
            <mxPoint x="638.2650920121944" y="3159.6804918032785" as="sourcePoint" />
            <mxPoint x="772.0083846951212" y="2931.205081967213" as="targetPoint" />
          </mxGeometry>
        </mxCell>
        <mxCell id="wQAFLfGIhW9gEui9MyVe-297" value="subject" style="shape=table;startSize=55;container=1;collapsible=1;childLayout=tableLayout;fixedRows=1;rowLines=0;fontStyle=1;align=center;resizeLast=1;fontSize=26;strokeWidth=4;" parent="hRsAympE7n8ipThZUoXn-5" vertex="1">
          <mxGeometry x="59.059999999999995" y="987.8700000000001" width="447.03" height="457" as="geometry" />
        </mxCell>
        <mxCell id="wQAFLfGIhW9gEui9MyVe-298" value="" style="shape=tableRow;horizontal=0;startSize=0;swimlaneHead=0;swimlaneBody=0;fillColor=none;collapsible=0;dropTarget=0;points=[[0,0.5],[1,0.5]];portConstraint=eastwest;top=0;left=0;right=0;bottom=1;" parent="wQAFLfGIhW9gEui9MyVe-297" vertex="1">
          <mxGeometry y="55" width="447.03" height="100" as="geometry" />
        </mxCell>
        <mxCell id="wQAFLfGIhW9gEui9MyVe-299" value="PK" style="shape=partialRectangle;connectable=0;fillColor=none;top=0;left=0;bottom=0;right=0;fontStyle=1;overflow=hidden;fontSize=18;" parent="wQAFLfGIhW9gEui9MyVe-298" vertex="1">
          <mxGeometry width="30" height="100" as="geometry">
            <mxRectangle width="30" height="100" as="alternateBounds" />
          </mxGeometry>
        </mxCell>
        <mxCell id="wQAFLfGIhW9gEui9MyVe-300" value="id" style="shape=partialRectangle;connectable=0;fillColor=none;top=0;left=0;bottom=0;right=0;align=left;spacingLeft=6;fontStyle=5;overflow=hidden;fontSize=25;" parent="wQAFLfGIhW9gEui9MyVe-298" vertex="1">
          <mxGeometry x="30" width="417.03" height="100" as="geometry">
            <mxRectangle width="417.03" height="100" as="alternateBounds" />
          </mxGeometry>
        </mxCell>
        <mxCell id="wQAFLfGIhW9gEui9MyVe-301" value="" style="shape=tableRow;horizontal=0;startSize=0;swimlaneHead=0;swimlaneBody=0;fillColor=none;collapsible=0;dropTarget=0;points=[[0,0.5],[1,0.5]];portConstraint=eastwest;top=0;left=0;right=0;bottom=0;" parent="wQAFLfGIhW9gEui9MyVe-297" vertex="1">
          <mxGeometry y="155" width="447.03" height="100" as="geometry" />
        </mxCell>
        <mxCell id="wQAFLfGIhW9gEui9MyVe-302" value="FK" style="shape=partialRectangle;connectable=0;fillColor=none;top=0;left=0;bottom=0;right=0;fontStyle=0;overflow=hidden;fontSize=18;" parent="wQAFLfGIhW9gEui9MyVe-301" vertex="1">
          <mxGeometry width="30" height="100" as="geometry">
            <mxRectangle width="30" height="100" as="alternateBounds" />
          </mxGeometry>
        </mxCell>
        <mxCell id="wQAFLfGIhW9gEui9MyVe-303" value="group_id" style="shape=partialRectangle;connectable=0;fillColor=none;top=0;left=0;bottom=0;right=0;align=left;spacingLeft=6;fontStyle=0;overflow=hidden;fontSize=25;" parent="wQAFLfGIhW9gEui9MyVe-301" vertex="1">
          <mxGeometry x="30" width="417.03" height="100" as="geometry">
            <mxRectangle width="417.03" height="100" as="alternateBounds" />
          </mxGeometry>
        </mxCell>
        <mxCell id="wQAFLfGIhW9gEui9MyVe-304" value="" style="shape=tableRow;horizontal=0;startSize=0;swimlaneHead=0;swimlaneBody=0;fillColor=none;collapsible=0;dropTarget=0;points=[[0,0.5],[1,0.5]];portConstraint=eastwest;top=0;left=0;right=0;bottom=0;" parent="wQAFLfGIhW9gEui9MyVe-297" vertex="1">
          <mxGeometry y="255" width="447.03" height="100" as="geometry" />
        </mxCell>
        <mxCell id="wQAFLfGIhW9gEui9MyVe-305" value="" style="shape=partialRectangle;connectable=0;fillColor=none;top=0;left=0;bottom=0;right=0;editable=1;overflow=hidden;" parent="wQAFLfGIhW9gEui9MyVe-304" vertex="1">
          <mxGeometry width="30" height="100" as="geometry">
            <mxRectangle width="30" height="100" as="alternateBounds" />
          </mxGeometry>
        </mxCell>
        <mxCell id="wQAFLfGIhW9gEui9MyVe-306" value="subject_name" style="shape=partialRectangle;connectable=0;fillColor=none;top=0;left=0;bottom=0;right=0;align=left;spacingLeft=6;overflow=hidden;fontSize=25;" parent="wQAFLfGIhW9gEui9MyVe-304" vertex="1">
          <mxGeometry x="30" width="417.03" height="100" as="geometry">
            <mxRectangle width="417.03" height="100" as="alternateBounds" />
          </mxGeometry>
        </mxCell>
        <mxCell id="wQAFLfGIhW9gEui9MyVe-307" value="" style="shape=tableRow;horizontal=0;startSize=0;swimlaneHead=0;swimlaneBody=0;fillColor=none;collapsible=0;dropTarget=0;points=[[0,0.5],[1,0.5]];portConstraint=eastwest;top=0;left=0;right=0;bottom=0;" parent="wQAFLfGIhW9gEui9MyVe-297" vertex="1">
          <mxGeometry y="355" width="447.03" height="100" as="geometry" />
        </mxCell>
        <mxCell id="wQAFLfGIhW9gEui9MyVe-308" value="" style="shape=partialRectangle;connectable=0;fillColor=none;top=0;left=0;bottom=0;right=0;editable=1;overflow=hidden;" parent="wQAFLfGIhW9gEui9MyVe-307" vertex="1">
          <mxGeometry width="30" height="100" as="geometry">
            <mxRectangle width="30" height="100" as="alternateBounds" />
          </mxGeometry>
        </mxCell>
        <mxCell id="wQAFLfGIhW9gEui9MyVe-309" value="semester" style="shape=partialRectangle;connectable=0;fillColor=none;top=0;left=0;bottom=0;right=0;align=left;spacingLeft=6;overflow=hidden;fontSize=25;" parent="wQAFLfGIhW9gEui9MyVe-307" vertex="1">
          <mxGeometry x="30" width="417.03" height="100" as="geometry">
            <mxRectangle width="417.03" height="100" as="alternateBounds" />
          </mxGeometry>
        </mxCell>
        <mxCell id="wQAFLfGIhW9gEui9MyVe-345" value="" style="edgeStyle=elbowEdgeStyle;fontSize=12;html=1;endArrow=ERoneToMany;rounded=0;exitX=0;exitY=0.5;exitDx=0;exitDy=0;entryX=0;entryY=0.5;entryDx=0;entryDy=0;strokeWidth=4;" parent="hRsAympE7n8ipThZUoXn-5" source="wQAFLfGIhW9gEui9MyVe-298" target="wQAFLfGIhW9gEui9MyVe-230" edge="1">
          <mxGeometry width="100" height="100" relative="1" as="geometry">
            <mxPoint x="-275.6162012195121" y="2771.272295081967" as="sourcePoint" />
            <mxPoint x="382.38" y="811" as="targetPoint" />
            <Array as="points">
              <mxPoint x="39" y="964" />
            </Array>
          </mxGeometry>
        </mxCell>
        <mxCell id="wQAFLfGIhW9gEui9MyVe-447" value="" style="edgeStyle=elbowEdgeStyle;fontSize=12;html=1;endArrow=ERoneToMany;rounded=0;exitX=0;exitY=0.5;exitDx=0;exitDy=0;entryX=1;entryY=0.5;entryDx=0;entryDy=0;strokeWidth=4;" parent="hRsAympE7n8ipThZUoXn-5" source="wQAFLfGIhW9gEui9MyVe-272" target="wQAFLfGIhW9gEui9MyVe-301" edge="1">
          <mxGeometry width="100" height="100" relative="1" as="geometry">
            <mxPoint x="504.1071951219511" y="2062.9985245901635" as="sourcePoint" />
            <mxPoint x="637.8504878048781" y="1834.523114754098" as="targetPoint" />
            <Array as="points">
              <mxPoint x="535" y="1783" />
            </Array>
          </mxGeometry>
        </mxCell>
        <mxCell id="wQAFLfGIhW9gEui9MyVe-310" value="event" style="shape=table;startSize=55;container=1;collapsible=1;childLayout=tableLayout;fixedRows=1;rowLines=0;fontStyle=1;align=center;resizeLast=1;fontSize=26;strokeWidth=4;" parent="hRsAympE7n8ipThZUoXn-5" vertex="1">
          <mxGeometry x="696.85" y="1141.4099999999999" width="446.68" height="755" as="geometry" />
        </mxCell>
        <mxCell id="wQAFLfGIhW9gEui9MyVe-311" value="" style="shape=tableRow;horizontal=0;startSize=0;swimlaneHead=0;swimlaneBody=0;fillColor=none;collapsible=0;dropTarget=0;points=[[0,0.5],[1,0.5]];portConstraint=eastwest;top=0;left=0;right=0;bottom=1;" parent="wQAFLfGIhW9gEui9MyVe-310" vertex="1">
          <mxGeometry y="55" width="446.68" height="100" as="geometry" />
        </mxCell>
        <mxCell id="wQAFLfGIhW9gEui9MyVe-312" value="PK" style="shape=partialRectangle;connectable=0;fillColor=none;top=0;left=0;bottom=0;right=0;fontStyle=1;overflow=hidden;fontSize=18;" parent="wQAFLfGIhW9gEui9MyVe-311" vertex="1">
          <mxGeometry width="30" height="100" as="geometry">
            <mxRectangle width="30" height="100" as="alternateBounds" />
          </mxGeometry>
        </mxCell>
        <mxCell id="wQAFLfGIhW9gEui9MyVe-313" value="id" style="shape=partialRectangle;connectable=0;fillColor=none;top=0;left=0;bottom=0;right=0;align=left;spacingLeft=6;fontStyle=5;overflow=hidden;fontSize=25;" parent="wQAFLfGIhW9gEui9MyVe-311" vertex="1">
          <mxGeometry x="30" width="416.68" height="100" as="geometry">
            <mxRectangle width="416.68" height="100" as="alternateBounds" />
          </mxGeometry>
        </mxCell>
        <mxCell id="wQAFLfGIhW9gEui9MyVe-314" value="" style="shape=tableRow;horizontal=0;startSize=0;swimlaneHead=0;swimlaneBody=0;fillColor=none;collapsible=0;dropTarget=0;points=[[0,0.5],[1,0.5]];portConstraint=eastwest;top=0;left=0;right=0;bottom=0;" parent="wQAFLfGIhW9gEui9MyVe-310" vertex="1">
          <mxGeometry y="155" width="446.68" height="100" as="geometry" />
        </mxCell>
        <mxCell id="wQAFLfGIhW9gEui9MyVe-315" value="FK" style="shape=partialRectangle;connectable=0;fillColor=none;top=0;left=0;bottom=0;right=0;fontStyle=0;overflow=hidden;fontSize=18;" parent="wQAFLfGIhW9gEui9MyVe-314" vertex="1">
          <mxGeometry width="30" height="100" as="geometry">
            <mxRectangle width="30" height="100" as="alternateBounds" />
          </mxGeometry>
        </mxCell>
        <mxCell id="wQAFLfGIhW9gEui9MyVe-316" value="group_id" style="shape=partialRectangle;connectable=0;fillColor=none;top=0;left=0;bottom=0;right=0;align=left;spacingLeft=6;fontStyle=0;overflow=hidden;fontSize=25;" parent="wQAFLfGIhW9gEui9MyVe-314" vertex="1">
          <mxGeometry x="30" width="416.68" height="100" as="geometry">
            <mxRectangle width="416.68" height="100" as="alternateBounds" />
          </mxGeometry>
        </mxCell>
        <mxCell id="wQAFLfGIhW9gEui9MyVe-320" value="" style="shape=tableRow;horizontal=0;startSize=0;swimlaneHead=0;swimlaneBody=0;fillColor=none;collapsible=0;dropTarget=0;points=[[0,0.5],[1,0.5]];portConstraint=eastwest;top=0;left=0;right=0;bottom=0;" parent="wQAFLfGIhW9gEui9MyVe-310" vertex="1">
          <mxGeometry y="255" width="446.68" height="100" as="geometry" />
        </mxCell>
        <mxCell id="wQAFLfGIhW9gEui9MyVe-321" value="FK" style="shape=partialRectangle;connectable=0;fillColor=none;top=0;left=0;bottom=0;right=0;fontStyle=0;overflow=hidden;fontSize=18;" parent="wQAFLfGIhW9gEui9MyVe-320" vertex="1">
          <mxGeometry width="30" height="100" as="geometry">
            <mxRectangle width="30" height="100" as="alternateBounds" />
          </mxGeometry>
        </mxCell>
        <mxCell id="wQAFLfGIhW9gEui9MyVe-322" value="event_priority_id" style="shape=partialRectangle;connectable=0;fillColor=none;top=0;left=0;bottom=0;right=0;align=left;spacingLeft=6;fontStyle=0;overflow=hidden;fontSize=25;" parent="wQAFLfGIhW9gEui9MyVe-320" vertex="1">
          <mxGeometry x="30" width="416.68" height="100" as="geometry">
            <mxRectangle width="416.68" height="100" as="alternateBounds" />
          </mxGeometry>
        </mxCell>
        <mxCell id="wQAFLfGIhW9gEui9MyVe-317" value="" style="shape=tableRow;horizontal=0;startSize=0;swimlaneHead=0;swimlaneBody=0;fillColor=none;collapsible=0;dropTarget=0;points=[[0,0.5],[1,0.5]];portConstraint=eastwest;top=0;left=0;right=0;bottom=0;" parent="wQAFLfGIhW9gEui9MyVe-310" vertex="1">
          <mxGeometry y="355" width="446.68" height="100" as="geometry" />
        </mxCell>
        <mxCell id="wQAFLfGIhW9gEui9MyVe-318" value="FK" style="shape=partialRectangle;connectable=0;fillColor=none;top=0;left=0;bottom=0;right=0;editable=1;overflow=hidden;fontSize=18;" parent="wQAFLfGIhW9gEui9MyVe-317" vertex="1">
          <mxGeometry width="30" height="100" as="geometry">
            <mxRectangle width="30" height="100" as="alternateBounds" />
          </mxGeometry>
        </mxCell>
        <mxCell id="wQAFLfGIhW9gEui9MyVe-319" value="user_id" style="shape=partialRectangle;connectable=0;fillColor=none;top=0;left=0;bottom=0;right=0;align=left;spacingLeft=6;overflow=hidden;fontSize=25;" parent="wQAFLfGIhW9gEui9MyVe-317" vertex="1">
          <mxGeometry x="30" width="416.68" height="100" as="geometry">
            <mxRectangle width="416.68" height="100" as="alternateBounds" />
          </mxGeometry>
        </mxCell>
        <mxCell id="wQAFLfGIhW9gEui9MyVe-323" value="" style="shape=tableRow;horizontal=0;startSize=0;swimlaneHead=0;swimlaneBody=0;fillColor=none;collapsible=0;dropTarget=0;points=[[0,0.5],[1,0.5]];portConstraint=eastwest;top=0;left=0;right=0;bottom=0;" parent="wQAFLfGIhW9gEui9MyVe-310" vertex="1">
          <mxGeometry y="455" width="446.68" height="100" as="geometry" />
        </mxCell>
        <mxCell id="wQAFLfGIhW9gEui9MyVe-324" value="" style="shape=partialRectangle;connectable=0;fillColor=none;top=0;left=0;bottom=0;right=0;editable=1;overflow=hidden;" parent="wQAFLfGIhW9gEui9MyVe-323" vertex="1">
          <mxGeometry width="30" height="100" as="geometry">
            <mxRectangle width="30" height="100" as="alternateBounds" />
          </mxGeometry>
        </mxCell>
        <mxCell id="wQAFLfGIhW9gEui9MyVe-325" value="event_text" style="shape=partialRectangle;connectable=0;fillColor=none;top=0;left=0;bottom=0;right=0;align=left;spacingLeft=6;overflow=hidden;fontSize=25;" parent="wQAFLfGIhW9gEui9MyVe-323" vertex="1">
          <mxGeometry x="30" width="416.68" height="100" as="geometry">
            <mxRectangle width="416.68" height="100" as="alternateBounds" />
          </mxGeometry>
        </mxCell>
        <mxCell id="wQAFLfGIhW9gEui9MyVe-326" value="" style="shape=tableRow;horizontal=0;startSize=0;swimlaneHead=0;swimlaneBody=0;fillColor=none;collapsible=0;dropTarget=0;points=[[0,0.5],[1,0.5]];portConstraint=eastwest;top=0;left=0;right=0;bottom=0;" parent="wQAFLfGIhW9gEui9MyVe-310" vertex="1">
          <mxGeometry y="555" width="446.68" height="100" as="geometry" />
        </mxCell>
        <mxCell id="wQAFLfGIhW9gEui9MyVe-327" value="" style="shape=partialRectangle;connectable=0;fillColor=none;top=0;left=0;bottom=0;right=0;editable=1;overflow=hidden;" parent="wQAFLfGIhW9gEui9MyVe-326" vertex="1">
          <mxGeometry width="30" height="100" as="geometry">
            <mxRectangle width="30" height="100" as="alternateBounds" />
          </mxGeometry>
        </mxCell>
        <mxCell id="wQAFLfGIhW9gEui9MyVe-328" value="event_description" style="shape=partialRectangle;connectable=0;fillColor=none;top=0;left=0;bottom=0;right=0;align=left;spacingLeft=6;overflow=hidden;fontSize=25;" parent="wQAFLfGIhW9gEui9MyVe-326" vertex="1">
          <mxGeometry x="30" width="416.68" height="100" as="geometry">
            <mxRectangle width="416.68" height="100" as="alternateBounds" />
          </mxGeometry>
        </mxCell>
        <mxCell id="wQAFLfGIhW9gEui9MyVe-329" value="" style="shape=tableRow;horizontal=0;startSize=0;swimlaneHead=0;swimlaneBody=0;fillColor=none;collapsible=0;dropTarget=0;points=[[0,0.5],[1,0.5]];portConstraint=eastwest;top=0;left=0;right=0;bottom=0;" parent="wQAFLfGIhW9gEui9MyVe-310" vertex="1">
          <mxGeometry y="655" width="446.68" height="100" as="geometry" />
        </mxCell>
        <mxCell id="wQAFLfGIhW9gEui9MyVe-330" value="" style="shape=partialRectangle;connectable=0;fillColor=none;top=0;left=0;bottom=0;right=0;editable=1;overflow=hidden;" parent="wQAFLfGIhW9gEui9MyVe-329" vertex="1">
          <mxGeometry width="30" height="100" as="geometry">
            <mxRectangle width="30" height="100" as="alternateBounds" />
          </mxGeometry>
        </mxCell>
        <mxCell id="wQAFLfGIhW9gEui9MyVe-331" value="event_date" style="shape=partialRectangle;connectable=0;fillColor=none;top=0;left=0;bottom=0;right=0;align=left;spacingLeft=6;overflow=hidden;fontSize=25;" parent="wQAFLfGIhW9gEui9MyVe-329" vertex="1">
          <mxGeometry x="30" width="416.68" height="100" as="geometry">
            <mxRectangle width="416.68" height="100" as="alternateBounds" />
          </mxGeometry>
        </mxCell>
        <mxCell id="wQAFLfGIhW9gEui9MyVe-452" value="" style="edgeStyle=elbowEdgeStyle;fontSize=12;html=1;endArrow=ERoneToMany;rounded=0;entryX=0;entryY=0.333;entryDx=0;entryDy=0;entryPerimeter=0;exitX=0;exitY=0.5;exitDx=0;exitDy=0;strokeWidth=4;" parent="hRsAympE7n8ipThZUoXn-5" source="wQAFLfGIhW9gEui9MyVe-272" target="wQAFLfGIhW9gEui9MyVe-314" edge="1">
          <mxGeometry width="100" height="100" relative="1" as="geometry">
            <mxPoint x="691.3478048780487" y="2497.1018032786887" as="sourcePoint" />
            <mxPoint x="825.0910975609755" y="2268.626393442623" as="targetPoint" />
            <Array as="points">
              <mxPoint x="582.38" y="1819" />
            </Array>
          </mxGeometry>
        </mxCell>
        <mxCell id="wQAFLfGIhW9gEui9MyVe-342" value="" style="edgeStyle=elbowEdgeStyle;fontSize=12;html=1;endArrow=ERoneToMany;rounded=0;entryX=1;entryY=0.5;entryDx=0;entryDy=0;exitX=0;exitY=0.5;exitDx=0;exitDy=0;strokeWidth=4;" parent="hRsAympE7n8ipThZUoXn-5" source="wQAFLfGIhW9gEui9MyVe-333" target="wQAFLfGIhW9gEui9MyVe-320" edge="1">
          <mxGeometry width="100" height="100" relative="1" as="geometry">
            <mxPoint x="-743.4820548780488" y="1320.4534426229504" as="sourcePoint" />
            <mxPoint x="-181.76022560975605" y="1651.7427868852456" as="targetPoint" />
          </mxGeometry>
        </mxCell>
        <mxCell id="wQAFLfGIhW9gEui9MyVe-359" value="user" style="shape=table;startSize=55;container=1;collapsible=1;childLayout=tableLayout;fixedRows=1;rowLines=0;fontStyle=1;align=center;resizeLast=1;fontSize=26;strokeWidth=4;" parent="hRsAympE7n8ipThZUoXn-5" vertex="1">
          <mxGeometry x="1618.1100000000001" y="2149.2900000000004" width="391.9" height="855" as="geometry" />
        </mxCell>
        <mxCell id="wQAFLfGIhW9gEui9MyVe-360" value="" style="shape=tableRow;horizontal=0;startSize=0;swimlaneHead=0;swimlaneBody=0;fillColor=none;collapsible=0;dropTarget=0;points=[[0,0.5],[1,0.5]];portConstraint=eastwest;top=0;left=0;right=0;bottom=1;" parent="wQAFLfGIhW9gEui9MyVe-359" vertex="1">
          <mxGeometry y="55" width="391.9" height="100" as="geometry" />
        </mxCell>
        <mxCell id="wQAFLfGIhW9gEui9MyVe-361" value="PK" style="shape=partialRectangle;connectable=0;fillColor=none;top=0;left=0;bottom=0;right=0;fontStyle=1;overflow=hidden;fontSize=18;" parent="wQAFLfGIhW9gEui9MyVe-360" vertex="1">
          <mxGeometry width="30" height="100" as="geometry">
            <mxRectangle width="30" height="100" as="alternateBounds" />
          </mxGeometry>
        </mxCell>
        <mxCell id="wQAFLfGIhW9gEui9MyVe-362" value="id" style="shape=partialRectangle;connectable=0;fillColor=none;top=0;left=0;bottom=0;right=0;align=left;spacingLeft=6;fontStyle=5;overflow=hidden;fontSize=25;" parent="wQAFLfGIhW9gEui9MyVe-360" vertex="1">
          <mxGeometry x="30" width="361.9" height="100" as="geometry">
            <mxRectangle width="361.9" height="100" as="alternateBounds" />
          </mxGeometry>
        </mxCell>
        <mxCell id="wQAFLfGIhW9gEui9MyVe-363" value="" style="shape=tableRow;horizontal=0;startSize=0;swimlaneHead=0;swimlaneBody=0;fillColor=none;collapsible=0;dropTarget=0;points=[[0,0.5],[1,0.5]];portConstraint=eastwest;top=0;left=0;right=0;bottom=0;" parent="wQAFLfGIhW9gEui9MyVe-359" vertex="1">
          <mxGeometry y="155" width="391.9" height="100" as="geometry" />
        </mxCell>
        <mxCell id="wQAFLfGIhW9gEui9MyVe-364" value="FK" style="shape=partialRectangle;connectable=0;fillColor=none;top=0;left=0;bottom=0;right=0;fontStyle=0;overflow=hidden;fontSize=18;" parent="wQAFLfGIhW9gEui9MyVe-363" vertex="1">
          <mxGeometry width="30" height="100" as="geometry">
            <mxRectangle width="30" height="100" as="alternateBounds" />
          </mxGeometry>
        </mxCell>
        <mxCell id="wQAFLfGIhW9gEui9MyVe-365" value="account_id" style="shape=partialRectangle;connectable=0;fillColor=none;top=0;left=0;bottom=0;right=0;align=left;spacingLeft=6;fontStyle=0;overflow=hidden;fontSize=25;" parent="wQAFLfGIhW9gEui9MyVe-363" vertex="1">
          <mxGeometry x="30" width="361.9" height="100" as="geometry">
            <mxRectangle width="361.9" height="100" as="alternateBounds" />
          </mxGeometry>
        </mxCell>
        <mxCell id="wQAFLfGIhW9gEui9MyVe-366" value="" style="shape=tableRow;horizontal=0;startSize=0;swimlaneHead=0;swimlaneBody=0;fillColor=none;collapsible=0;dropTarget=0;points=[[0,0.5],[1,0.5]];portConstraint=eastwest;top=0;left=0;right=0;bottom=0;" parent="wQAFLfGIhW9gEui9MyVe-359" vertex="1">
          <mxGeometry y="255" width="391.9" height="100" as="geometry" />
        </mxCell>
        <mxCell id="wQAFLfGIhW9gEui9MyVe-367" value="FK" style="shape=partialRectangle;connectable=0;fillColor=none;top=0;left=0;bottom=0;right=0;fontStyle=0;overflow=hidden;fontSize=18;" parent="wQAFLfGIhW9gEui9MyVe-366" vertex="1">
          <mxGeometry width="30" height="100" as="geometry">
            <mxRectangle width="30" height="100" as="alternateBounds" />
          </mxGeometry>
        </mxCell>
        <mxCell id="wQAFLfGIhW9gEui9MyVe-368" value="role_id" style="shape=partialRectangle;connectable=0;fillColor=none;top=0;left=0;bottom=0;right=0;align=left;spacingLeft=6;fontStyle=0;overflow=hidden;fontSize=25;" parent="wQAFLfGIhW9gEui9MyVe-366" vertex="1">
          <mxGeometry x="30" width="361.9" height="100" as="geometry">
            <mxRectangle width="361.9" height="100" as="alternateBounds" />
          </mxGeometry>
        </mxCell>
        <mxCell id="wQAFLfGIhW9gEui9MyVe-369" value="" style="shape=tableRow;horizontal=0;startSize=0;swimlaneHead=0;swimlaneBody=0;fillColor=none;collapsible=0;dropTarget=0;points=[[0,0.5],[1,0.5]];portConstraint=eastwest;top=0;left=0;right=0;bottom=0;" parent="wQAFLfGIhW9gEui9MyVe-359" vertex="1">
          <mxGeometry y="355" width="391.9" height="100" as="geometry" />
        </mxCell>
        <mxCell id="wQAFLfGIhW9gEui9MyVe-370" value="FK" style="shape=partialRectangle;connectable=0;fillColor=none;top=0;left=0;bottom=0;right=0;fontStyle=0;overflow=hidden;fontSize=18;" parent="wQAFLfGIhW9gEui9MyVe-369" vertex="1">
          <mxGeometry width="30" height="100" as="geometry">
            <mxRectangle width="30" height="100" as="alternateBounds" />
          </mxGeometry>
        </mxCell>
        <mxCell id="wQAFLfGIhW9gEui9MyVe-371" value="sex_id" style="shape=partialRectangle;connectable=0;fillColor=none;top=0;left=0;bottom=0;right=0;align=left;spacingLeft=6;fontStyle=0;overflow=hidden;fontSize=25;" parent="wQAFLfGIhW9gEui9MyVe-369" vertex="1">
          <mxGeometry x="30" width="361.9" height="100" as="geometry">
            <mxRectangle width="361.9" height="100" as="alternateBounds" />
          </mxGeometry>
        </mxCell>
        <mxCell id="wQAFLfGIhW9gEui9MyVe-372" value="" style="shape=tableRow;horizontal=0;startSize=0;swimlaneHead=0;swimlaneBody=0;fillColor=none;collapsible=0;dropTarget=0;points=[[0,0.5],[1,0.5]];portConstraint=eastwest;top=0;left=0;right=0;bottom=0;" parent="wQAFLfGIhW9gEui9MyVe-359" vertex="1">
          <mxGeometry y="455" width="391.9" height="100" as="geometry" />
        </mxCell>
        <mxCell id="wQAFLfGIhW9gEui9MyVe-373" value="FK" style="shape=partialRectangle;connectable=0;fillColor=none;top=0;left=0;bottom=0;right=0;fontStyle=0;overflow=hidden;fontSize=18;" parent="wQAFLfGIhW9gEui9MyVe-372" vertex="1">
          <mxGeometry width="30" height="100" as="geometry">
            <mxRectangle width="30" height="100" as="alternateBounds" />
          </mxGeometry>
        </mxCell>
        <mxCell id="wQAFLfGIhW9gEui9MyVe-374" value="group_id" style="shape=partialRectangle;connectable=0;fillColor=none;top=0;left=0;bottom=0;right=0;align=left;spacingLeft=6;fontStyle=0;overflow=hidden;fontSize=25;" parent="wQAFLfGIhW9gEui9MyVe-372" vertex="1">
          <mxGeometry x="30" width="361.9" height="100" as="geometry">
            <mxRectangle width="361.9" height="100" as="alternateBounds" />
          </mxGeometry>
        </mxCell>
        <mxCell id="wQAFLfGIhW9gEui9MyVe-375" value="" style="shape=tableRow;horizontal=0;startSize=0;swimlaneHead=0;swimlaneBody=0;fillColor=none;collapsible=0;dropTarget=0;points=[[0,0.5],[1,0.5]];portConstraint=eastwest;top=0;left=0;right=0;bottom=0;" parent="wQAFLfGIhW9gEui9MyVe-359" vertex="1">
          <mxGeometry y="555" width="391.9" height="100" as="geometry" />
        </mxCell>
        <mxCell id="wQAFLfGIhW9gEui9MyVe-376" value="" style="shape=partialRectangle;connectable=0;fillColor=none;top=0;left=0;bottom=0;right=0;editable=1;overflow=hidden;" parent="wQAFLfGIhW9gEui9MyVe-375" vertex="1">
          <mxGeometry width="30" height="100" as="geometry">
            <mxRectangle width="30" height="100" as="alternateBounds" />
          </mxGeometry>
        </mxCell>
        <mxCell id="wQAFLfGIhW9gEui9MyVe-377" value="first_name" style="shape=partialRectangle;connectable=0;fillColor=none;top=0;left=0;bottom=0;right=0;align=left;spacingLeft=6;overflow=hidden;fontSize=25;" parent="wQAFLfGIhW9gEui9MyVe-375" vertex="1">
          <mxGeometry x="30" width="361.9" height="100" as="geometry">
            <mxRectangle width="361.9" height="100" as="alternateBounds" />
          </mxGeometry>
        </mxCell>
        <mxCell id="wQAFLfGIhW9gEui9MyVe-378" value="" style="shape=tableRow;horizontal=0;startSize=0;swimlaneHead=0;swimlaneBody=0;fillColor=none;collapsible=0;dropTarget=0;points=[[0,0.5],[1,0.5]];portConstraint=eastwest;top=0;left=0;right=0;bottom=0;" parent="wQAFLfGIhW9gEui9MyVe-359" vertex="1">
          <mxGeometry y="655" width="391.9" height="100" as="geometry" />
        </mxCell>
        <mxCell id="wQAFLfGIhW9gEui9MyVe-379" value="" style="shape=partialRectangle;connectable=0;fillColor=none;top=0;left=0;bottom=0;right=0;editable=1;overflow=hidden;" parent="wQAFLfGIhW9gEui9MyVe-378" vertex="1">
          <mxGeometry width="30" height="100" as="geometry">
            <mxRectangle width="30" height="100" as="alternateBounds" />
          </mxGeometry>
        </mxCell>
        <mxCell id="wQAFLfGIhW9gEui9MyVe-380" value="last_name" style="shape=partialRectangle;connectable=0;fillColor=none;top=0;left=0;bottom=0;right=0;align=left;spacingLeft=6;overflow=hidden;fontSize=25;" parent="wQAFLfGIhW9gEui9MyVe-378" vertex="1">
          <mxGeometry x="30" width="361.9" height="100" as="geometry">
            <mxRectangle width="361.9" height="100" as="alternateBounds" />
          </mxGeometry>
        </mxCell>
        <mxCell id="wQAFLfGIhW9gEui9MyVe-381" value="" style="shape=tableRow;horizontal=0;startSize=0;swimlaneHead=0;swimlaneBody=0;fillColor=none;collapsible=0;dropTarget=0;points=[[0,0.5],[1,0.5]];portConstraint=eastwest;top=0;left=0;right=0;bottom=0;" parent="wQAFLfGIhW9gEui9MyVe-359" vertex="1">
          <mxGeometry y="755" width="391.9" height="100" as="geometry" />
        </mxCell>
        <mxCell id="wQAFLfGIhW9gEui9MyVe-382" value="" style="shape=partialRectangle;connectable=0;fillColor=none;top=0;left=0;bottom=0;right=0;editable=1;overflow=hidden;" parent="wQAFLfGIhW9gEui9MyVe-381" vertex="1">
          <mxGeometry width="30" height="100" as="geometry">
            <mxRectangle width="30" height="100" as="alternateBounds" />
          </mxGeometry>
        </mxCell>
        <mxCell id="wQAFLfGIhW9gEui9MyVe-383" value="avatar_link" style="shape=partialRectangle;connectable=0;fillColor=none;top=0;left=0;bottom=0;right=0;align=left;spacingLeft=6;overflow=hidden;fontSize=25;" parent="wQAFLfGIhW9gEui9MyVe-381" vertex="1">
          <mxGeometry x="30" width="361.9" height="100" as="geometry">
            <mxRectangle width="361.9" height="100" as="alternateBounds" />
          </mxGeometry>
        </mxCell>
        <mxCell id="wQAFLfGIhW9gEui9MyVe-453" value="" style="edgeStyle=orthogonalEdgeStyle;fontSize=12;html=1;endArrow=ERoneToMany;rounded=0;entryX=1;entryY=0.5;entryDx=0;entryDy=0;exitX=0;exitY=0.5;exitDx=0;exitDy=0;strokeWidth=4;" parent="hRsAympE7n8ipThZUoXn-5" source="wQAFLfGIhW9gEui9MyVe-360" target="wQAFLfGIhW9gEui9MyVe-317" edge="1">
          <mxGeometry width="100" height="100" relative="1" as="geometry">
            <mxPoint x="691.3478048780487" y="2497.1018032786887" as="sourcePoint" />
            <mxPoint x="825.0910975609755" y="2268.626393442623" as="targetPoint" />
            <Array as="points">
              <mxPoint x="1208" y="2254" />
              <mxPoint x="1208" y="1546" />
            </Array>
          </mxGeometry>
        </mxCell>
        <mxCell id="wQAFLfGIhW9gEui9MyVe-449" value="" style="edgeStyle=elbowEdgeStyle;fontSize=12;html=1;endArrow=ERoneToMany;rounded=0;exitX=1;exitY=0.5;exitDx=0;exitDy=0;entryX=1;entryY=0.5;entryDx=0;entryDy=0;strokeWidth=4;" parent="hRsAympE7n8ipThZUoXn-5" source="wQAFLfGIhW9gEui9MyVe-360" target="wQAFLfGIhW9gEui9MyVe-420" edge="1">
          <mxGeometry width="100" height="100" relative="1" as="geometry">
            <mxPoint x="1560.6792073170732" y="1788.828032786885" as="sourcePoint" />
            <mxPoint x="1694.4225" y="1560.352622950819" as="targetPoint" />
            <Array as="points">
              <mxPoint x="2267.38" y="1728" />
            </Array>
          </mxGeometry>
        </mxCell>
        <mxCell id="wQAFLfGIhW9gEui9MyVe-448" value="" style="edgeStyle=orthogonalEdgeStyle;fontSize=12;html=1;endArrow=ERoneToMany;rounded=0;entryX=0;entryY=0.5;entryDx=0;entryDy=0;elbow=vertical;exitX=1;exitY=0.5;exitDx=0;exitDy=0;strokeWidth=4;" parent="hRsAympE7n8ipThZUoXn-5" source="wQAFLfGIhW9gEui9MyVe-272" target="wQAFLfGIhW9gEui9MyVe-372" edge="1">
          <mxGeometry width="100" height="100" relative="1" as="geometry">
            <mxPoint x="803.38" y="2248" as="sourcePoint" />
            <mxPoint x="1105.9520121951218" y="1720.285409836065" as="targetPoint" />
            <Array as="points">
              <mxPoint x="1169" y="2258" />
              <mxPoint x="1169" y="2654" />
            </Array>
          </mxGeometry>
        </mxCell>
        <mxCell id="wQAFLfGIhW9gEui9MyVe-695" value="" style="group;shadow=0;" parent="1" vertex="1" connectable="0">
          <mxGeometry x="73" y="118.11" width="2193.39" height="2964.56" as="geometry" />
        </mxCell>
        <mxCell id="wQAFLfGIhW9gEui9MyVe-242" value="quiz_variant" style="shape=table;startSize=55;container=1;collapsible=1;childLayout=tableLayout;fixedRows=1;rowLines=0;fontStyle=1;align=center;resizeLast=1;fontSize=26;strokeWidth=4;" parent="wQAFLfGIhW9gEui9MyVe-695" vertex="1">
          <mxGeometry x="1511.29" y="23.62" width="358.78" height="455" as="geometry" />
        </mxCell>
        <mxCell id="wQAFLfGIhW9gEui9MyVe-243" value="" style="shape=tableRow;horizontal=0;startSize=0;swimlaneHead=0;swimlaneBody=0;fillColor=none;collapsible=0;dropTarget=0;points=[[0,0.5],[1,0.5]];portConstraint=eastwest;top=0;left=0;right=0;bottom=1;" parent="wQAFLfGIhW9gEui9MyVe-242" vertex="1">
          <mxGeometry y="55" width="358.78" height="100" as="geometry" />
        </mxCell>
        <mxCell id="wQAFLfGIhW9gEui9MyVe-244" value="PK" style="shape=partialRectangle;connectable=0;fillColor=none;top=0;left=0;bottom=0;right=0;fontStyle=1;overflow=hidden;fontSize=18;" parent="wQAFLfGIhW9gEui9MyVe-243" vertex="1">
          <mxGeometry width="30" height="100" as="geometry">
            <mxRectangle width="30" height="100" as="alternateBounds" />
          </mxGeometry>
        </mxCell>
        <mxCell id="wQAFLfGIhW9gEui9MyVe-245" value="id" style="shape=partialRectangle;connectable=0;fillColor=none;top=0;left=0;bottom=0;right=0;align=left;spacingLeft=6;fontStyle=5;overflow=hidden;fontSize=25;" parent="wQAFLfGIhW9gEui9MyVe-243" vertex="1">
          <mxGeometry x="30" width="328.78" height="100" as="geometry">
            <mxRectangle width="328.78" height="100" as="alternateBounds" />
          </mxGeometry>
        </mxCell>
        <mxCell id="wQAFLfGIhW9gEui9MyVe-246" value="" style="shape=tableRow;horizontal=0;startSize=0;swimlaneHead=0;swimlaneBody=0;fillColor=none;collapsible=0;dropTarget=0;points=[[0,0.5],[1,0.5]];portConstraint=eastwest;top=0;left=0;right=0;bottom=0;" parent="wQAFLfGIhW9gEui9MyVe-242" vertex="1">
          <mxGeometry y="155" width="358.78" height="100" as="geometry" />
        </mxCell>
        <mxCell id="wQAFLfGIhW9gEui9MyVe-247" value="" style="shape=partialRectangle;connectable=0;fillColor=none;top=0;left=0;bottom=0;right=0;editable=1;overflow=hidden;" parent="wQAFLfGIhW9gEui9MyVe-246" vertex="1">
          <mxGeometry width="30" height="100" as="geometry">
            <mxRectangle width="30" height="100" as="alternateBounds" />
          </mxGeometry>
        </mxCell>
        <mxCell id="wQAFLfGIhW9gEui9MyVe-248" value="quiz_variant_text" style="shape=partialRectangle;connectable=0;fillColor=none;top=0;left=0;bottom=0;right=0;align=left;spacingLeft=6;overflow=hidden;fontSize=25;" parent="wQAFLfGIhW9gEui9MyVe-246" vertex="1">
          <mxGeometry x="30" width="328.78" height="100" as="geometry">
            <mxRectangle width="328.78" height="100" as="alternateBounds" />
          </mxGeometry>
        </mxCell>
        <mxCell id="wQAFLfGIhW9gEui9MyVe-249" value="" style="shape=tableRow;horizontal=0;startSize=0;swimlaneHead=0;swimlaneBody=0;fillColor=none;collapsible=0;dropTarget=0;points=[[0,0.5],[1,0.5]];portConstraint=eastwest;top=0;left=0;right=0;bottom=0;" parent="wQAFLfGIhW9gEui9MyVe-242" vertex="1">
          <mxGeometry y="255" width="358.78" height="100" as="geometry" />
        </mxCell>
        <mxCell id="wQAFLfGIhW9gEui9MyVe-250" value="" style="shape=partialRectangle;connectable=0;fillColor=none;top=0;left=0;bottom=0;right=0;editable=1;overflow=hidden;" parent="wQAFLfGIhW9gEui9MyVe-249" vertex="1">
          <mxGeometry width="30" height="100" as="geometry">
            <mxRectangle width="30" height="100" as="alternateBounds" />
          </mxGeometry>
        </mxCell>
        <mxCell id="wQAFLfGIhW9gEui9MyVe-251" value="is_correct" style="shape=partialRectangle;connectable=0;fillColor=none;top=0;left=0;bottom=0;right=0;align=left;spacingLeft=6;overflow=hidden;fontSize=25;" parent="wQAFLfGIhW9gEui9MyVe-249" vertex="1">
          <mxGeometry x="30" width="328.78" height="100" as="geometry">
            <mxRectangle width="328.78" height="100" as="alternateBounds" />
          </mxGeometry>
        </mxCell>
        <mxCell id="wQAFLfGIhW9gEui9MyVe-252" value="" style="shape=tableRow;horizontal=0;startSize=0;swimlaneHead=0;swimlaneBody=0;fillColor=none;collapsible=0;dropTarget=0;points=[[0,0.5],[1,0.5]];portConstraint=eastwest;top=0;left=0;right=0;bottom=0;" parent="wQAFLfGIhW9gEui9MyVe-242" vertex="1">
          <mxGeometry y="355" width="358.78" height="100" as="geometry" />
        </mxCell>
        <mxCell id="wQAFLfGIhW9gEui9MyVe-253" value="FK" style="shape=partialRectangle;connectable=0;fillColor=none;top=0;left=0;bottom=0;right=0;editable=1;overflow=hidden;fontSize=18;" parent="wQAFLfGIhW9gEui9MyVe-252" vertex="1">
          <mxGeometry width="30" height="100" as="geometry">
            <mxRectangle width="30" height="100" as="alternateBounds" />
          </mxGeometry>
        </mxCell>
        <mxCell id="wQAFLfGIhW9gEui9MyVe-254" value="question_id" style="shape=partialRectangle;connectable=0;fillColor=none;top=0;left=0;bottom=0;right=0;align=left;spacingLeft=6;overflow=hidden;fontSize=25;" parent="wQAFLfGIhW9gEui9MyVe-252" vertex="1">
          <mxGeometry x="30" width="328.78" height="100" as="geometry">
            <mxRectangle width="328.78" height="100" as="alternateBounds" />
          </mxGeometry>
        </mxCell>
        <mxCell id="wQAFLfGIhW9gEui9MyVe-394" value="quiz_result" style="shape=table;startSize=55;container=1;collapsible=1;childLayout=tableLayout;fixedRows=1;rowLines=0;fontStyle=1;align=center;resizeLast=1;fontSize=26;strokeWidth=4;" parent="wQAFLfGIhW9gEui9MyVe-695" vertex="1">
          <mxGeometry x="1203.69" y="753.97" width="418.35" height="564.92" as="geometry" />
        </mxCell>
        <mxCell id="wQAFLfGIhW9gEui9MyVe-395" value="" style="shape=tableRow;horizontal=0;startSize=0;swimlaneHead=0;swimlaneBody=0;fillColor=none;collapsible=0;dropTarget=0;points=[[0,0.5],[1,0.5]];portConstraint=eastwest;top=0;left=0;right=0;bottom=1;" parent="wQAFLfGIhW9gEui9MyVe-394" vertex="1">
          <mxGeometry y="55" width="418.35" height="100" as="geometry" />
        </mxCell>
        <mxCell id="wQAFLfGIhW9gEui9MyVe-396" value="PK" style="shape=partialRectangle;connectable=0;fillColor=none;top=0;left=0;bottom=0;right=0;fontStyle=1;overflow=hidden;fontSize=18;" parent="wQAFLfGIhW9gEui9MyVe-395" vertex="1">
          <mxGeometry width="30" height="100" as="geometry">
            <mxRectangle width="30" height="100" as="alternateBounds" />
          </mxGeometry>
        </mxCell>
        <mxCell id="wQAFLfGIhW9gEui9MyVe-397" value="id" style="shape=partialRectangle;connectable=0;fillColor=none;top=0;left=0;bottom=0;right=0;align=left;spacingLeft=6;fontStyle=5;overflow=hidden;fontSize=25;" parent="wQAFLfGIhW9gEui9MyVe-395" vertex="1">
          <mxGeometry x="30" width="388.35" height="100" as="geometry">
            <mxRectangle width="388.35" height="100" as="alternateBounds" />
          </mxGeometry>
        </mxCell>
        <mxCell id="wQAFLfGIhW9gEui9MyVe-398" value="" style="shape=tableRow;horizontal=0;startSize=0;swimlaneHead=0;swimlaneBody=0;fillColor=none;collapsible=0;dropTarget=0;points=[[0,0.5],[1,0.5]];portConstraint=eastwest;top=0;left=0;right=0;bottom=0;" parent="wQAFLfGIhW9gEui9MyVe-394" vertex="1">
          <mxGeometry y="155" width="418.35" height="100" as="geometry" />
        </mxCell>
        <mxCell id="wQAFLfGIhW9gEui9MyVe-399" value="FK" style="shape=partialRectangle;connectable=0;fillColor=none;top=0;left=0;bottom=0;right=0;fontStyle=0;overflow=hidden;fontSize=18;" parent="wQAFLfGIhW9gEui9MyVe-398" vertex="1">
          <mxGeometry width="30" height="100" as="geometry">
            <mxRectangle width="30" height="100" as="alternateBounds" />
          </mxGeometry>
        </mxCell>
        <mxCell id="wQAFLfGIhW9gEui9MyVe-400" value="quiz_id" style="shape=partialRectangle;connectable=0;fillColor=none;top=0;left=0;bottom=0;right=0;align=left;spacingLeft=6;fontStyle=0;overflow=hidden;fontSize=25;" parent="wQAFLfGIhW9gEui9MyVe-398" vertex="1">
          <mxGeometry x="30" width="388.35" height="100" as="geometry">
            <mxRectangle width="388.35" height="100" as="alternateBounds" />
          </mxGeometry>
        </mxCell>
        <mxCell id="wQAFLfGIhW9gEui9MyVe-401" value="" style="shape=tableRow;horizontal=0;startSize=0;swimlaneHead=0;swimlaneBody=0;fillColor=none;collapsible=0;dropTarget=0;points=[[0,0.5],[1,0.5]];portConstraint=eastwest;top=0;left=0;right=0;bottom=0;" parent="wQAFLfGIhW9gEui9MyVe-394" vertex="1">
          <mxGeometry y="255" width="418.35" height="100" as="geometry" />
        </mxCell>
        <mxCell id="wQAFLfGIhW9gEui9MyVe-402" value="FK" style="shape=partialRectangle;connectable=0;fillColor=none;top=0;left=0;bottom=0;right=0;fontStyle=0;overflow=hidden;fontSize=18;" parent="wQAFLfGIhW9gEui9MyVe-401" vertex="1">
          <mxGeometry width="30" height="100" as="geometry">
            <mxRectangle width="30" height="100" as="alternateBounds" />
          </mxGeometry>
        </mxCell>
        <mxCell id="wQAFLfGIhW9gEui9MyVe-403" value="user_id" style="shape=partialRectangle;connectable=0;fillColor=none;top=0;left=0;bottom=0;right=0;align=left;spacingLeft=6;fontStyle=0;overflow=hidden;fontSize=25;" parent="wQAFLfGIhW9gEui9MyVe-401" vertex="1">
          <mxGeometry x="30" width="388.35" height="100" as="geometry">
            <mxRectangle width="388.35" height="100" as="alternateBounds" />
          </mxGeometry>
        </mxCell>
        <mxCell id="wQAFLfGIhW9gEui9MyVe-404" value="" style="shape=tableRow;horizontal=0;startSize=0;swimlaneHead=0;swimlaneBody=0;fillColor=none;collapsible=0;dropTarget=0;points=[[0,0.5],[1,0.5]];portConstraint=eastwest;top=0;left=0;right=0;bottom=0;" parent="wQAFLfGIhW9gEui9MyVe-394" vertex="1">
          <mxGeometry y="355" width="418.35" height="100" as="geometry" />
        </mxCell>
        <mxCell id="wQAFLfGIhW9gEui9MyVe-405" value="" style="shape=partialRectangle;connectable=0;fillColor=none;top=0;left=0;bottom=0;right=0;editable=1;overflow=hidden;" parent="wQAFLfGIhW9gEui9MyVe-404" vertex="1">
          <mxGeometry width="30" height="100" as="geometry">
            <mxRectangle width="30" height="100" as="alternateBounds" />
          </mxGeometry>
        </mxCell>
        <mxCell id="wQAFLfGIhW9gEui9MyVe-406" value="result" style="shape=partialRectangle;connectable=0;fillColor=none;top=0;left=0;bottom=0;right=0;align=left;spacingLeft=6;overflow=hidden;fontSize=25;" parent="wQAFLfGIhW9gEui9MyVe-404" vertex="1">
          <mxGeometry x="30" width="388.35" height="100" as="geometry">
            <mxRectangle width="388.35" height="100" as="alternateBounds" />
          </mxGeometry>
        </mxCell>
        <mxCell id="wQAFLfGIhW9gEui9MyVe-407" value="" style="shape=tableRow;horizontal=0;startSize=0;swimlaneHead=0;swimlaneBody=0;fillColor=none;collapsible=0;dropTarget=0;points=[[0,0.5],[1,0.5]];portConstraint=eastwest;top=0;left=0;right=0;bottom=0;" parent="wQAFLfGIhW9gEui9MyVe-394" vertex="1">
          <mxGeometry y="455" width="418.35" height="100" as="geometry" />
        </mxCell>
        <mxCell id="wQAFLfGIhW9gEui9MyVe-408" value="" style="shape=partialRectangle;connectable=0;fillColor=none;top=0;left=0;bottom=0;right=0;editable=1;overflow=hidden;" parent="wQAFLfGIhW9gEui9MyVe-407" vertex="1">
          <mxGeometry width="30" height="100" as="geometry">
            <mxRectangle width="30" height="100" as="alternateBounds" />
          </mxGeometry>
        </mxCell>
        <mxCell id="wQAFLfGIhW9gEui9MyVe-409" value="quiz_submit_date" style="shape=partialRectangle;connectable=0;fillColor=none;top=0;left=0;bottom=0;right=0;align=left;spacingLeft=6;overflow=hidden;fontSize=25;" parent="wQAFLfGIhW9gEui9MyVe-407" vertex="1">
          <mxGeometry x="30" width="388.35" height="100" as="geometry">
            <mxRectangle width="388.35" height="100" as="alternateBounds" />
          </mxGeometry>
        </mxCell>
        <mxCell id="wQAFLfGIhW9gEui9MyVe-425" value="" style="edgeStyle=elbowEdgeStyle;fontSize=12;html=1;endArrow=ERoneToMany;rounded=0;entryX=1;entryY=0.5;entryDx=0;entryDy=0;exitX=1;exitY=0.5;exitDx=0;exitDy=0;strokeWidth=4;" parent="1" source="wQAFLfGIhW9gEui9MyVe-243" target="wQAFLfGIhW9gEui9MyVe-417" edge="1">
          <mxGeometry width="100" height="100" relative="1" as="geometry">
            <mxPoint x="2105.8980487804874" y="209.50016393442598" as="sourcePoint" />
            <mxPoint x="2146.0210365853654" y="940.6214754098359" as="targetPoint" />
            <Array as="points">
              <mxPoint x="2264" y="614" />
            </Array>
          </mxGeometry>
        </mxCell>
        <mxCell id="wQAFLfGIhW9gEui9MyVe-424" value="" style="edgeStyle=elbowEdgeStyle;fontSize=12;html=1;endArrow=ERoneToMany;rounded=0;entryX=0;entryY=0.5;entryDx=0;entryDy=0;exitX=1;exitY=0.5;exitDx=0;exitDy=0;strokeWidth=4;" parent="1" source="wQAFLfGIhW9gEui9MyVe-227" target="wQAFLfGIhW9gEui9MyVe-398" edge="1">
          <mxGeometry width="100" height="100" relative="1" as="geometry">
            <mxPoint x="755.0907926829268" y="3179.6804918032785" as="sourcePoint" />
            <mxPoint x="888.8340853658535" y="2951.205081967213" as="targetPoint" />
            <Array as="points">
              <mxPoint x="799" y="874" />
            </Array>
          </mxGeometry>
        </mxCell>
        <mxCell id="wQAFLfGIhW9gEui9MyVe-344" value="" style="edgeStyle=elbowEdgeStyle;fontSize=12;html=1;endArrow=ERoneToMany;rounded=0;entryX=0;entryY=0.5;entryDx=0;entryDy=0;exitX=1;exitY=0.5;exitDx=0;exitDy=0;strokeWidth=4;" parent="1" source="wQAFLfGIhW9gEui9MyVe-256" target="wQAFLfGIhW9gEui9MyVe-252" edge="1">
          <mxGeometry width="100" height="100" relative="1" as="geometry">
            <mxPoint x="1103.2379578658529" y="3225.375573770492" as="sourcePoint" />
            <mxPoint x="1236.9812505487796" y="2996.9001639344265" as="targetPoint" />
            <Array as="points">
              <mxPoint x="1476" y="433.11" />
            </Array>
          </mxGeometry>
        </mxCell>
        <mxCell id="wQAFLfGIhW9gEui9MyVe-450" value="" style="edgeStyle=elbowEdgeStyle;fontSize=12;html=1;endArrow=ERoneToMany;rounded=0;exitX=1;exitY=0.5;exitDx=0;exitDy=0;entryX=1;entryY=0.5;entryDx=0;entryDy=0;strokeWidth=4;" parent="1" source="wQAFLfGIhW9gEui9MyVe-360" target="wQAFLfGIhW9gEui9MyVe-401" edge="1">
          <mxGeometry width="100" height="100" relative="1" as="geometry">
            <mxPoint x="928.9570731707315" y="1603.2001639344257" as="sourcePoint" />
            <mxPoint x="1062.7003658536582" y="1374.7247540983603" as="targetPoint" />
            <Array as="points">
              <mxPoint x="2146" y="1744" />
            </Array>
          </mxGeometry>
        </mxCell>
        <mxCell id="Z9BGsQkOC4ifNPMDKOmG-1" value="Text" style="edgeLabel;html=1;align=center;verticalAlign=middle;resizable=0;points=[];" vertex="1" connectable="0" parent="wQAFLfGIhW9gEui9MyVe-450">
          <mxGeometry x="-0.0443" y="3" relative="1" as="geometry">
            <mxPoint as="offset" />
          </mxGeometry>
        </mxCell>
      </root>
    </mxGraphModel>
  </diagram>
</mxfile>
